<?xml version="1.0" standalone="no"?>
<!DOCTYPE svg PUBLIC "-//W3C//DTD SVG 20010904//EN"
 "http://www.w3.org/TR/2001/REC-SVG-20010904/DTD/svg10.dtd">
<svg version="1.0" xmlns="http://www.w3.org/2000/svg"
 width="200.000000pt" height="200.000000pt" viewBox="0 0 200.000000 200.000000"
 preserveAspectRatio="xMidYMid meet">

<g transform="translate(0.000000,200.000000) scale(0.100000,-0.100000)"
fill="#000000" stroke="none">
<path d="M766 963 c-113 -159 -212 -297 -221 -308 -8 -10 -15 -23 -15 -27 0
-4 205 -8 455 -8 250 0 455 2 455 5 0 3 -18 31 -40 63 -106 150 -133 189 -182
255 -29 40 -66 92 -83 117 -16 25 -32 47 -35 50 -3 3 -22 27 -41 55 -49 70
-62 85 -75 85 -7 0 -105 -129 -218 -287z"/>
<path d="M800 550 c-41 -41 -13 -100 47 -100 36 0 56 20 56 57 0 30 -34 63
-64 63 -10 0 -28 -9 -39 -20z m61 -10 c21 -12 25 -40 7 -58 -34 -34 -79 7 -52
46 17 25 19 26 45 12z"/>
<path d="M1112 558 c-20 -20 -14 -48 13 -58 14 -5 25 -14 25 -20 0 -5 -11 -10
-25 -10 -14 0 -25 -4 -25 -10 0 -14 54 -12 68 2 20 20 14 37 -18 53 -30 15
-33 38 -5 33 8 -2 15 2 17 7 5 15 -35 18 -50 3z"/>
<path d="M390 505 c0 -30 5 -55 10 -55 6 0 10 16 10 35 0 19 4 35 8 35 5 0 17
-16 28 -35 10 -20 26 -35 36 -35 15 0 18 9 18 55 0 62 -17 75 -22 18 l-3 -38
-24 38 c-13 21 -31 37 -42 37 -16 0 -19 -8 -19 -55z"/>
<path d="M530 505 c0 -30 5 -55 10 -55 6 0 10 25 10 55 0 30 -4 55 -10 55 -5
0 -10 -25 -10 -55z"/>
<path d="M580 506 c0 -55 15 -78 22 -34 2 14 12 24 28 28 18 4 25 12 25 30 0
22 -5 25 -37 28 l-38 3 0 -55z m44 38 c23 -9 20 -24 -4 -24 -11 0 -20 7 -20
15 0 17 2 18 24 9z"/>
<path d="M680 505 c0 -54 15 -77 22 -32 2 15 11 23 30 25 28 3 41 22 32 47 -4
10 -20 15 -45 15 l-39 0 0 -55z m60 24 c0 -5 -9 -9 -20 -9 -19 0 -26 11 -14
23 8 8 34 -3 34 -14z"/>
<path d="M920 505 c0 -41 4 -55 14 -55 10 0 16 13 18 38 l3 37 22 -37 c33 -57
53 -50 53 17 0 62 -17 75 -22 18 l-3 -38 -22 38 c-14 23 -30 37 -43 37 -18 0
-20 -6 -20 -55z"/>
<path d="M1190 550 c0 -5 7 -10 15 -10 11 0 15 -12 15 -45 0 -25 5 -45 10 -45
6 0 10 20 10 45 0 33 4 45 14 45 8 0 18 5 21 10 4 6 -12 10 -39 10 -25 0 -46
-4 -46 -10z"/>
<path d="M1294 508 c1 -53 1 -53 35 -56 18 -2 38 1 44 7 8 8 2 11 -21 11 -22
0 -32 5 -32 15 0 9 9 15 25 15 14 0 25 5 25 10 0 6 -11 10 -25 10 -14 0 -25 5
-25 10 0 6 11 10 25 10 14 0 25 5 25 10 0 6 -17 10 -39 10 l-38 0 1 -52z"/>
<path d="M1400 505 l0 -55 40 0 c22 0 40 5 40 10 0 6 -11 10 -25 10 -16 0 -25
6 -25 15 0 9 10 15 26 15 14 0 23 4 19 10 -3 6 -15 10 -26 10 -10 0 -19 5 -19
10 0 6 11 10 25 10 14 0 25 5 25 10 0 6 -18 10 -40 10 l-40 0 0 -55z"/>
<path d="M1510 505 l0 -55 35 0 c19 0 35 5 35 10 0 6 -11 10 -25 10 -23 0 -25
4 -25 45 0 25 -4 45 -10 45 -5 0 -10 -25 -10 -55z"/>
</g>
</svg>
