<?xml version="1.0" standalone="no"?>
<!DOCTYPE svg PUBLIC "-//W3C//DTD SVG 20010904//EN"
 "http://www.w3.org/TR/2001/REC-SVG-20010904/DTD/svg10.dtd">
<svg version="1.0" xmlns="http://www.w3.org/2000/svg"
 width="400.000000pt" height="400.000000pt" viewBox="0 0 400.000000 400.000000"
 preserveAspectRatio="xMidYMid meet">

<g transform="translate(0.000000,400.000000) scale(0.100000,-0.100000)"
fill="#000000" stroke="none">
<path d="M0 2000 l0 -2000 2000 0 2000 0 0 2000 0 2000 -2000 0 -2000 0 0
-2000z m1945 1554 c19 -10 31 -11 33 -5 2 6 21 11 42 11 31 0 42 -5 51 -22 16
-31 43 -56 60 -56 38 2 49 -5 66 -39 9 -21 24 -43 33 -50 13 -11 13 -15 -2
-42 -14 -26 -14 -32 -2 -42 25 -20 16 -46 -22 -64 -20 -9 -39 -26 -41 -36 -8
-28 -64 -30 -94 -3 -10 9 -23 13 -28 9 -18 -10 -13 -70 7 -86 29 -24 61 -39
82 -39 26 0 46 -36 29 -56 -10 -12 -43 -14 -188 -12 l-176 3 0 30 c0 25 5 31
25 33 42 5 99 34 105 53 6 17 -20 69 -34 69 -4 0 -16 -7 -27 -15 -29 -22 -66
-18 -93 10 -13 14 -26 25 -30 25 -3 0 -15 19 -26 41 -18 39 -18 41 -2 51 12 6
16 16 12 29 -4 12 -1 27 8 37 8 9 19 31 24 47 8 24 15 30 39 30 37 1 54 11 54
35 0 11 9 24 20 30 11 6 20 17 20 25 0 19 17 19 55 -1z m395 -771 c0 -230 -10
-305 -50 -383 l-20 -39 25 -37 c14 -21 28 -47 31 -60 8 -32 1 -79 -13 -77 -6
1 -17 -5 -25 -15 -12 -15 -11 -16 5 -3 31 24 18 -6 -14 -33 -50 -42 -118 -79
-135 -72 -8 3 -33 -3 -56 -15 l-40 -21 4 40 c2 22 0 38 -4 36 -13 -8 -9 -99 4
-112 9 -9 -6 -12 -70 -12 -81 0 -82 1 -77 23 5 17 -1 26 -26 41 -22 13 -34 16
-37 8 -4 -13 -135 49 -148 69 -5 8 -3 9 7 4 8 -5 -2 9 -21 31 -19 22 -37 39
-39 37 -3 -2 8 -17 24 -33 16 -17 24 -30 17 -30 -17 0 -62 71 -62 98 0 28 25
90 46 113 15 16 14 23 -9 81 -38 93 -47 170 -47 386 l0 192 365 0 365 0 0
-217z m-203 -729 c-3 -4 0 -16 8 -28 8 -11 15 -42 15 -68 0 -72 -14 -78 -185
-78 -170 0 -185 6 -185 78 0 26 4 53 9 60 12 19 64 25 85 9 22 -16 15 -34 -18
-47 -13 -6 24 -9 107 -9 71 -1 137 4 148 9 17 10 19 7 19 -29 0 -50 -1 -50
-175 -54 l-130 -3 138 -2 c81 -1 146 2 158 8 27 15 27 100 -1 125 -20 18 -19
35 2 35 6 0 8 -3 5 -6z m-13 -33 c17 -19 17 -20 -3 -30 -27 -15 -46 -14 -60 3
-9 11 -8 18 4 30 22 21 38 20 59 -3z m-1076 -341 c23 -1 25 -2 10 -11 -15 -8
-18 -25 -18 -104 0 -53 -4 -95 -9 -95 -6 0 -40 34 -78 75 -37 41 -71 75 -75
75 -9 0 -11 -91 -2 -114 3 -9 12 -16 20 -16 8 0 14 -4 14 -10 0 -5 -18 -10
-40 -10 -36 0 -55 13 -30 22 5 2 10 38 12 81 3 68 0 80 -16 93 -19 13 -18 14
9 14 23 0 45 -16 102 -72 l73 -72 0 63 c0 54 -3 64 -20 68 -11 3 -17 10 -14
15 3 5 13 7 21 4 8 -3 27 -6 41 -6z m1070 0 c6 0 12 -11 12 -25 l0 -25 -20 20
c-23 23 -53 26 -69 6 -17 -20 -4 -42 32 -57 48 -18 67 -39 67 -70 0 -38 -36
-62 -87 -58 -38 4 -51 16 -52 53 -1 16 3 14 20 -8 27 -35 82 -34 87 1 3 18 -7
27 -47 48 -55 27 -74 62 -50 91 18 22 50 34 74 29 11 -3 26 -5 33 -5z m425
-17 c2 -13 0 -23 -4 -23 -5 0 -9 5 -9 10 0 6 -16 10 -35 10 l-35 0 0 -85 c0
-69 3 -85 15 -85 8 0 15 -4 15 -10 0 -5 -25 -10 -55 -10 -54 0 -74 13 -35 23
18 5 20 14 20 86 l0 81 -33 0 c-18 0 -39 -6 -46 -12 -11 -11 -13 -10 -7 5 3
10 6 22 6 25 0 4 45 7 99 7 95 0 100 -1 104 -22z m612 13 c35 -15 65 -59 65
-96 0 -55 -57 -110 -114 -110 -115 0 -147 160 -41 206 39 17 48 17 90 0z
m-2523 -12 c-18 -13 -22 -25 -22 -72 0 -77 19 -104 68 -100 46 4 62 32 62 111
0 51 -3 59 -22 67 -18 7 -13 9 27 9 39 0 46 -2 33 -10 -14 -7 -18 -23 -18 -63
0 -64 -16 -113 -40 -126 -31 -16 -96 -12 -121 9 -21 17 -23 26 -21 89 2 53 -1
74 -13 86 -15 15 -12 16 37 16 50 0 52 -1 30 -16z m571 6 c-21 -9 -23 -16 -23
-94 0 -78 2 -84 23 -91 20 -7 19 -8 -10 -12 -18 -2 -48 -2 -65 0 -29 4 -31 5
-11 11 15 6 23 19 28 46 9 53 -4 128 -24 140 -11 7 1 9 44 9 46 0 55 -2 38 -9z
m138 1 c-15 -10 -5 -47 29 -111 l18 -35 31 65 c29 60 30 66 14 78 -14 10 -10
12 27 12 43 0 43 0 24 -18 -10 -10 -37 -57 -59 -105 -22 -47 -42 -86 -45 -87
-3 0 -26 41 -50 91 -25 50 -54 97 -65 105 -18 13 -14 14 35 14 35 0 50 -3 41
-9z m359 -11 c0 -11 -4 -20 -10 -20 -5 0 -10 4 -10 9 0 14 -38 24 -66 17 -20
-5 -24 -13 -24 -41 0 -33 2 -35 33 -35 18 0 38 5 45 12 9 9 12 3 12 -27 -1
-32 -3 -37 -11 -22 -6 11 -22 17 -45 17 -35 0 -35 -1 -32 -37 3 -36 5 -38 40
-41 27 -2 43 3 57 17 15 15 21 17 21 7 0 -41 -10 -46 -97 -46 -76 0 -84 2 -73
15 7 9 15 48 18 88 4 60 1 76 -13 90 -15 16 -11 17 69 17 79 0 86 -2 86 -20z
m212 3 c24 -21 23 -48 -2 -73 l-21 -21 21 -29 c11 -16 32 -38 47 -50 l26 -20
-27 0 c-17 0 -39 13 -66 41 -22 23 -40 45 -40 50 0 5 -7 9 -15 9 -11 0 -15
-11 -15 -35 0 -22 6 -38 15 -41 29 -12 14 -24 -29 -24 l-44 0 15 31 c19 38 13
157 -8 170 -9 5 13 9 55 9 51 0 74 -4 88 -17z m371 7 c-21 -9 -23 -16 -23 -94
0 -78 2 -84 23 -91 20 -7 19 -8 -10 -12 -18 -2 -48 -2 -65 0 -29 4 -31 5 -11
11 15 6 23 19 28 46 9 53 -4 128 -24 140 -11 7 1 9 44 9 46 0 55 -2 38 -9z
m378 1 c-11 -7 -9 -15 10 -40 27 -36 34 -36 57 2 15 24 15 29 2 37 -11 7 -2
10 30 10 35 -1 41 -3 28 -11 -10 -5 -31 -30 -48 -54 -35 -51 -41 -110 -12
-131 15 -12 11 -13 -33 -13 -44 0 -48 1 -32 13 30 23 22 73 -24 132 -22 29
-48 55 -57 57 -9 3 8 5 38 6 35 0 50 -3 41 -8z m769 -11 c0 -24 0 -24 -36 -5
-50 26 -64 20 -64 -25 0 -37 2 -40 28 -40 15 0 33 5 40 12 9 9 12 4 12 -22 0
-26 -3 -31 -12 -22 -7 7 -24 12 -39 12 -20 0 -28 -6 -33 -24 -7 -30 2 -56 20
-56 8 0 14 -4 14 -10 0 -5 -23 -10 -52 -10 -49 0 -50 1 -35 18 25 27 24 167 0
181 -13 8 5 10 70 11 80 0 87 -2 87 -20z m-3038 -388 c89 2 170 6 178 8 10 4
18 -8 26 -40 13 -51 7 -72 -12 -44 -29 41 -35 44 -104 44 l-70 0 0 -188 c0
-202 4 -218 50 -224 14 -2 24 -7 23 -11 -3 -9 -230 -13 -239 -4 -4 3 7 9 22
12 61 13 59 6 62 219 l2 196 -59 0 c-69 0 -108 -14 -117 -43 -4 -12 -10 -15
-15 -10 -6 6 -2 27 10 56 19 45 21 46 50 36 17 -6 96 -9 193 -7z m2708 -2 c87
0 170 4 184 10 27 10 28 9 41 -57 4 -18 2 -34 -4 -38 -6 -3 -11 -1 -11 4 0 6
-9 20 -20 31 -16 16 -33 20 -84 20 l-64 0 -7 -76 c-11 -108 -2 -299 14 -318 8
-9 24 -16 37 -16 13 0 24 -4 24 -10 0 -6 -36 -10 -89 -10 -49 0 -103 -3 -120
-6 -20 -4 -31 -3 -31 5 0 12 7 15 51 25 26 6 27 7 34 116 4 60 4 150 0 200
l-7 90 -65 0 c-59 0 -67 -3 -93 -30 -33 -35 -43 -30 -26 13 7 18 16 40 19 49
5 15 11 16 32 8 15 -6 98 -10 185 -10z m-2099 -18 c41 -21 61 -40 85 -80 57
-94 53 -185 -11 -273 -73 -101 -215 -129 -320 -64 -104 65 -143 214 -82 317
51 88 117 127 213 128 49 0 73 -6 115 -28z m495 18 c41 -16 72 -47 85 -87 14
-45 -12 -100 -63 -128 l-36 -20 52 -75 c57 -81 127 -150 151 -150 8 0 15 -4
15 -10 0 -15 -46 -12 -88 5 -46 20 -110 81 -169 163 -37 52 -50 62 -74 62 -29
0 -29 -1 -29 -57 0 -106 8 -131 46 -143 19 -7 34 -15 34 -18 0 -4 -47 -7 -105
-7 -58 0 -105 2 -105 5 0 3 14 13 30 22 l30 17 0 180 c0 99 -3 187 -6 196 -4
9 -17 21 -30 26 -13 4 -24 12 -24 16 0 13 253 15 286 3z m547 -3 c120 -51 180
-199 126 -317 -27 -60 -64 -98 -124 -126 -163 -77 -335 36 -335 220 0 131 108
236 242 236 32 0 73 -6 91 -13z m377 -45 c25 -26 96 -101 157 -167 l113 -120
0 147 c0 156 -6 178 -51 178 -10 0 -19 5 -19 11 0 9 20 10 68 6 37 -4 78 -7
92 -7 23 -1 22 -2 -10 -18 l-35 -17 -3 -218 c-2 -164 -5 -217 -15 -216 -6 0
-87 81 -179 179 l-168 179 0 -148 c0 -161 1 -165 57 -180 48 -13 21 -22 -75
-24 -60 -2 -91 1 -89 8 2 5 13 11 24 13 12 2 24 9 26 16 3 8 9 80 12 162 9
181 0 227 -46 243 -46 16 -27 28 38 24 54 -4 61 -8 103 -51z m1273 45 c150
-64 193 -260 83 -385 -66 -75 -192 -104 -282 -63 -49 23 -107 88 -122 140 -50
165 62 321 230 321 32 0 73 -6 91 -13z"/>
<path d="M1917 3548 c12 -6 24 -17 27 -25 7 -17 -2 -35 -14 -28 -4 3 -7 -3 -6
-13 0 -9 -5 -16 -11 -14 -7 1 -13 -3 -13 -9 0 -8 -5 -8 -15 1 -18 15 -20 52
-2 49 26 -3 36 2 31 15 -9 24 -54 -4 -54 -34 0 -25 -32 -55 -44 -42 -4 3 -13
7 -22 8 -15 2 -23 -10 -28 -42 -1 -9 -11 -23 -21 -30 -15 -11 -16 -16 -4 -30
11 -14 10 -18 -11 -34 -23 -18 -24 -19 -7 -38 9 -10 17 -24 17 -31 0 -6 11
-17 25 -23 14 -6 25 -17 25 -25 0 -7 5 -13 10 -13 5 0 9 3 9 8 -6 38 35 72 58
47 8 -9 6 -16 -8 -29 -11 -9 -24 -14 -29 -11 -6 4 -10 1 -10 -4 0 -18 26 -12
45 9 10 11 22 20 26 20 11 0 49 -65 49 -83 0 -22 -68 -67 -102 -67 -15 0 -29
-4 -32 -9 -4 -5 3 -7 15 -4 27 7 46 -19 21 -29 -9 -4 56 -7 146 -7 160 -1 163
-1 160 20 -2 14 -15 25 -40 34 -69 23 -88 41 -88 83 0 21 7 47 15 58 14 18 15
18 26 1 21 -36 89 -44 89 -11 0 7 18 23 40 34 22 11 40 24 40 29 0 13 -36 42
-43 34 -4 -3 -7 -1 -7 6 0 7 9 15 20 18 26 7 37 43 16 55 -9 5 -16 16 -16 23
0 8 -7 15 -16 15 -11 0 -14 6 -9 20 7 21 -4 25 -51 21 -12 -1 -24 5 -27 14 -4
9 -13 12 -23 8 -12 -4 -15 -3 -10 5 4 7 5 21 1 31 -7 23 -68 27 -86 5 -9 -12
-15 -11 -36 6 -14 11 -31 20 -37 19 -6 0 -1 -5 11 -11z m96 -21 c10 -27 2 -62
-15 -62 -9 0 -20 -4 -24 -8 -4 -4 -2 -7 5 -7 7 0 9 -4 6 -10 -9 -15 -42 -12
-49 5 -9 24 3 43 25 38 13 -4 19 0 19 11 0 11 -5 15 -12 10 -7 -4 -4 2 7 14
24 25 31 26 38 9z m38 1 c2 -18 1 -21 -6 -41 -6 -15 -4 -16 19 -7 28 10 30 1
11 -44 -8 -18 -8 -18 -22 0 -12 16 -15 17 -23 4 -7 -12 -12 -12 -22 -2 -6 6
-9 13 -5 13 8 2 24 6 31 8 2 0 0 17 -4 35 -4 19 -5 37 -2 40 9 10 22 6 23 -6z
m102 -64 c9 -3 13 -13 10 -25 -4 -13 0 -19 12 -19 13 0 15 -3 6 -13 -6 -8 -8
-17 -4 -20 3 -4 -1 -7 -9 -7 -9 0 -18 -7 -22 -15 -8 -22 4 -18 28 8 17 18 25
21 33 12 13 -14 5 -29 -20 -38 -9 -4 -22 -18 -27 -32 -12 -31 -32 -33 -29 -2
2 12 0 28 -5 35 -4 7 -3 19 3 26 6 7 8 16 4 19 -3 4 0 14 8 24 9 11 10 14 2 9
-7 -4 -13 -2 -13 3 0 6 -8 11 -17 11 -15 0 -15 -2 -2 -12 8 -7 12 -12 10 -11
-2 1 -12 -2 -23 -8 -11 -6 -22 -8 -25 -6 -8 9 27 56 45 60 9 3 18 5 19 6 1 0
8 -2 16 -5z m-323 -46 c0 -4 5 -8 11 -8 6 0 9 9 6 20 -9 37 35 21 47 -17 11
-35 56 -42 56 -7 0 15 12 19 24 7 13 -13 39 -12 54 4 25 24 37 -9 17 -47 -18
-36 -41 -35 -37 1 3 23 2 23 -12 4 -12 -16 -18 -18 -34 -8 -10 6 -23 8 -29 5
-15 -11 -23 -41 -13 -47 13 -8 13 -35 0 -35 -5 0 -10 7 -10 15 0 8 -5 14 -11
13 -13 -3 -20 27 -12 48 3 8 10 11 17 8 6 -3 0 3 -14 15 -16 13 -33 18 -48 14
-12 -3 -30 1 -40 8 -16 13 -16 12 1 -7 22 -27 22 -33 -3 -27 -11 3 -18 9 -15
13 3 5 1 11 -4 14 -5 3 -7 15 -4 25 4 17 9 18 29 9 13 -6 24 -15 24 -20z m94
11 c-8 -14 -24 -10 -24 6 0 9 6 12 15 9 8 -4 12 -10 9 -15z m196 -45 c0 -9 -5
-14 -12 -12 -18 6 -21 28 -4 28 9 0 16 -7 16 -16z m-320 -27 c0 -4 5 -5 10 -2
6 4 16 2 23 -3 7 -5 21 -12 32 -15 11 -3 1 -5 -22 -4 -24 2 -44 -2 -46 -7 -2
-5 -15 1 -30 14 -20 17 -24 27 -16 36 8 10 15 11 30 1 10 -6 19 -15 19 -20z
m54 18 c-4 -8 -10 -15 -15 -15 -5 0 -9 7 -9 15 0 8 7 15 15 15 9 0 12 -6 9
-15z m124 -31 c25 -17 30 -39 7 -30 -13 4 -13 2 -5 -14 13 -24 13 -53 0 -45
-5 3 -10 15 -10 25 0 10 -5 22 -10 25 -7 4 -8 -3 -4 -22 6 -24 5 -26 -8 -15
-9 7 -13 22 -10 37 2 14 0 25 -7 25 -5 0 -8 7 -5 15 8 19 24 19 52 -1z m132
-8 c0 -8 -12 -19 -27 -25 -21 -8 -22 -10 -5 -7 13 2 20 0 16 -6 -8 -13 14 -28
43 -28 27 0 40 -18 19 -26 -8 -3 -28 3 -44 15 -22 15 -32 17 -40 9 -14 -14
-21 -8 -27 22 -2 12 -7 25 -10 28 -2 3 0 11 6 19 15 18 69 17 69 -1z m-308
-21 c10 0 17 -4 15 -10 -1 -5 -15 -9 -32 -7 -20 2 -26 0 -17 -6 11 -7 10 -10
-5 -14 -16 -4 -51 18 -42 26 17 14 45 23 54 18 5 -4 18 -7 27 -7z m82 -11 c18
-17 22 -39 6 -29 -6 4 -7 -1 -3 -11 6 -16 7 -15 20 2 12 17 13 16 13 -7 0 -29
27 -72 41 -64 5 4 9 14 9 23 0 15 -2 15 -10 2 -9 -13 -11 -13 -20 0 -5 8 -10
23 -10 34 0 14 3 16 13 7 8 -6 17 -8 20 -4 4 3 10 -2 13 -11 9 -24 24 -1 24
37 0 15 5 27 10 27 6 0 10 -5 10 -11 0 -5 3 -8 8 -6 11 7 8 -45 -5 -68 -14
-27 -23 -114 -12 -121 5 -3 6 3 2 13 -6 16 -5 16 10 4 9 -7 14 -18 10 -24 -3
-6 -1 -7 5 -3 7 4 19 3 29 -2 12 -7 6 -10 -25 -10 -23 0 -44 4 -48 9 -3 6 -12
5 -22 -3 -11 -10 -16 -10 -19 -1 -3 9 -12 9 -29 2 -40 -15 -41 -11 -5 19 28
23 33 33 28 54 -8 29 -77 108 -95 108 -7 0 -12 3 -13 8 0 4 -2 15 -4 25 -4 22
28 23 49 1z m325 -35 c-20 -13 -43 -7 -47 13 -4 21 28 28 47 10 12 -12 12 -15
0 -23z m-395 -4 c6 -18 -26 -37 -48 -29 -21 8 -20 21 2 33 24 15 39 13 46 -4z
m307 -24 c19 -15 21 -22 12 -32 -9 -9 -17 -8 -37 5 -26 17 -31 27 -19 39 10
11 19 8 44 -12z m-151 -186 c11 -13 9 -15 -13 -15 -13 0 -30 7 -37 15 -11 13
-9 15 13 15 13 0 30 -7 37 -15z m120 0 c11 -13 8 -15 -18 -15 -17 0 -32 6 -36
15 -4 11 1 15 18 15 13 0 29 -7 36 -15z"/>
<path d="M2010 3259 c0 -11 4 -18 10 -14 5 3 7 12 3 20 -7 21 -13 19 -13 -6z"/>
<path d="M1991 3154 c0 -11 3 -14 6 -6 3 7 2 16 -1 19 -3 4 -6 -2 -5 -13z"/>
<path d="M1620 2803 c1 -279 25 -378 124 -518 47 -65 135 -151 198 -193 l37
-24 49 36 c71 51 183 173 220 238 70 121 75 149 80 411 l4 237 -179 -2 -178
-2 173 -3 172 -3 0 -135 0 -135 -342 2 -343 3 -3 132 -3 133 173 3 173 3 -177
2 -178 2 0 -187z m188 -172 c2 -33 -1 -57 -8 -61 -8 -5 -7 -9 3 -13 7 -3 20
-1 28 4 10 6 10 9 2 9 -9 0 -13 18 -13 55 0 65 13 75 64 51 19 -9 39 -16 45
-16 7 0 11 -24 11 -64 l0 -64 -62 -4 c-35 -2 -91 -1 -125 1 l-63 3 0 64 c0 35
4 64 9 64 13 0 18 -109 6 -114 -5 -3 15 -4 45 -4 l55 0 -42 10 -43 9 0 53 c0
45 3 55 23 64 12 6 31 10 42 9 17 -2 20 -11 23 -56z m322 0 c0 -37 -4 -61 -12
-63 -8 -3 -7 -6 3 -10 9 -3 22 -2 30 3 10 6 10 9 2 9 -9 0 -13 18 -13 55 0 63
12 75 60 55 28 -12 30 -16 30 -66 l0 -53 -37 -7 c-21 -4 -45 -11 -53 -16 -12
-8 -11 -8 3 -4 10 3 40 6 65 7 26 0 43 2 37 5 -12 5 -7 114 6 114 5 0 9 -29 9
-64 l0 -64 -62 -4 c-35 -2 -91 -1 -125 1 l-63 3 0 63 c0 62 1 64 30 70 16 4
32 11 35 16 4 5 17 9 31 9 23 0 24 -3 24 -59z m-39 -197 c22 -21 29 -37 29
-67 0 -47 -10 -67 -68 -135 -51 -61 -86 -82 -104 -64 -10 10 1 24 45 66 l58
53 -52 -5 c-40 -4 -50 -2 -44 8 5 7 18 10 37 6 26 -5 29 -4 18 8 -6 8 -18 12
-26 9 -8 -3 -18 4 -23 18 -8 20 -10 21 -10 5 -1 -27 -30 -56 -54 -56 -21 0
-21 0 -1 14 26 20 8 50 -35 54 -17 2 -31 7 -31 13 0 5 -7 9 -15 9 -26 0 -16
29 15 45 17 9 30 12 30 8 0 -5 4 -3 8 2 13 19 106 44 150 41 31 -3 52 -12 73
-32z m-191 -111 c0 -5 -11 -9 -25 -9 -14 -1 -22 2 -19 7 6 11 44 12 44 2z"/>
<path d="M1855 2550 c-25 -6 -21 -8 25 -9 39 0 51 2 40 9 -17 11 -22 11 -65 0z"/>
<path d="M2022 2598 l-2 -58 53 1 c50 1 51 1 17 10 -19 4 -40 6 -47 4 -8 -3
-13 13 -16 48 l-3 52 -2 -57z"/>
<path d="M2000 2370 c-6 -11 -8 -20 -6 -20 3 0 10 9 16 20 6 11 8 20 6 20 -3
0 -10 -9 -16 -20z"/>
<path d="M1970 2960 c0 -5 5 -10 11 -10 5 0 7 5 4 10 -3 6 -8 10 -11 10 -2 0
-4 -4 -4 -10z"/>
<path d="M1868 2926 c3 -5 -2 -7 -11 -3 -12 4 -14 2 -10 -10 5 -12 3 -14 -7
-8 -9 6 -11 4 -6 -4 6 -9 12 -9 25 3 10 9 25 16 34 16 9 0 18 3 20 8 3 4 -8 7
-23 7 -15 0 -26 -4 -22 -9z"/>
<path d="M1951 2927 c0 -10 -5 -16 -10 -13 -5 3 -21 0 -35 -8 l-26 -13 27 -12
c23 -11 25 -10 13 3 -11 14 -9 16 9 16 23 0 26 -11 11 -41 -6 -11 -7 -19 -1
-19 5 0 11 7 15 15 3 8 12 15 21 15 9 0 18 -7 21 -15 11 -28 23 -15 14 15 -8
26 -6 30 12 30 17 0 18 -2 8 -15 -11 -13 -10 -14 2 -10 9 4 18 -1 22 -10 3 -9
10 -13 16 -10 5 3 10 1 10 -4 0 -6 -10 -11 -22 -11 -17 0 -19 -3 -9 -9 11 -7
11 -9 0 -14 -9 -3 -9 -6 -2 -6 6 -1 20 10 31 24 11 13 22 21 26 17 4 -3 4 2 0
12 -4 12 -4 17 2 13 5 -3 10 3 10 14 0 18 -2 19 -12 4 -8 -10 -14 -12 -19 -6
-3 6 -15 11 -26 11 -10 0 -19 5 -19 10 0 6 9 10 19 10 11 0 22 3 24 8 3 4 -8
7 -23 7 -15 0 -26 -4 -22 -9 3 -5 -2 -7 -11 -3 -10 4 -17 1 -18 -6 0 -7 -4 -3
-9 8 -7 17 -9 15 -9 -12 -1 -41 -24 -40 -32 2 -4 17 -7 22 -8 12z m136 -53 c5
-16 -25 -13 -32 3 -3 10 1 13 12 11 9 -2 18 -8 20 -14z"/>
<path d="M1849 2868 c-6 -13 -8 -20 -4 -16 4 4 16 -4 27 -17 11 -14 25 -25 31
-25 8 0 7 3 -2 9 -11 7 -11 9 0 14 10 4 9 6 -3 6 -9 1 -20 6 -24 13 -4 6 -3 8
4 4 6 -3 13 -2 17 3 3 6 -4 8 -16 6 -15 -3 -19 0 -15 10 9 23 -2 18 -15 -7z"/>
<path d="M1948 2823 c12 -2 22 -9 22 -15 0 -6 -11 -8 -25 -6 -13 3 -22 1 -19
-3 3 -5 25 -9 49 -9 24 0 46 4 49 9 3 4 -6 6 -19 3 -14 -2 -25 0 -25 6 0 6 10
13 23 15 12 2 0 4 -28 4 -27 0 -40 -2 -27 -4z"/>
<path d="M1866 2807 c3 -10 9 -15 12 -12 3 3 0 11 -7 18 -10 9 -11 8 -5 -6z"/>
<path d="M2077 2813 c-4 -3 -7 -11 -7 -17 0 -6 5 -5 12 2 6 6 9 14 7 17 -3 3
-9 2 -12 -2z"/>
<path d="M1880 2775 c-7 -9 -10 -18 -6 -22 3 -3 6 -1 6 6 0 6 10 16 23 21 15
6 17 9 6 9 -9 1 -22 -6 -29 -14z"/>
<path d="M2048 2780 c12 -5 22 -15 22 -21 0 -7 3 -9 6 -6 10 10 -16 37 -35 36
-11 0 -9 -3 7 -9z"/>
<path d="M1953 2773 c15 -2 37 -2 50 0 12 2 0 4 -28 4 -27 0 -38 -2 -22 -4z"/>
<path d="M1895 2760 c-7 -11 22 -26 32 -16 4 3 -1 6 -11 6 -9 0 -14 5 -11 10
3 6 4 10 1 10 -3 0 -8 -5 -11 -10z"/>
<path d="M2044 2762 c3 -6 -2 -13 -11 -15 -16 -4 -16 -5 -1 -6 21 -1 32 15 17
25 -7 4 -9 3 -5 -4z"/>
<path d="M1665 2321 c-8 -17 -12 -31 -8 -31 9 0 35 52 29 58 -3 2 -12 -10 -21
-27z"/>
<path d="M2278 2310 c2 -16 8 -28 12 -25 5 3 13 -7 18 -22 6 -16 11 -22 11
-15 1 12 -36 92 -42 92 -2 0 -2 -13 1 -30z"/>
<path d="M1705 2290 c-3 -5 -1 -10 4 -10 6 0 11 5 11 10 0 6 -2 10 -4 10 -3 0
-8 -4 -11 -10z"/>
<path d="M2226 2282 c-2 -4 4 -8 14 -8 10 0 16 4 14 8 -3 4 -9 8 -14 8 -5 0
-11 -4 -14 -8z"/>
<path d="M1671 2275 c-1 -6 18 -29 40 -50 23 -22 39 -34 35 -27 -10 17 -3 15
39 -9 20 -12 38 -20 40 -18 2 2 -16 24 -40 48 -30 31 -45 40 -50 31 -6 -9 -4
-11 5 -5 10 6 12 4 7 -9 -4 -10 -7 -19 -7 -22 0 -2 -11 6 -25 18 -13 11 -22
26 -18 31 3 6 1 7 -5 3 -5 -3 -13 0 -15 6 -3 7 -6 8 -6 3z"/>
<path d="M2258 2248 c-13 -19 -18 -21 -31 -10 -14 12 -22 8 -59 -28 -24 -23
-33 -37 -21 -31 28 14 36 14 27 -1 -5 -7 -3 -8 7 -3 36 21 81 60 90 77 14 25
5 23 -13 -4z m-44 -39 c-9 -10 -22 -19 -28 -19 -6 0 -3 7 7 14 9 7 17 19 17
25 0 7 5 9 11 6 7 -5 4 -14 -7 -26z"/>
<path d="M1632 2235 c0 -16 2 -22 5 -12 2 9 2 23 0 30 -3 6 -5 -1 -5 -18z"/>
<path d="M1700 2178 c-10 -21 -10 -21 3 -6 8 10 18 14 22 10 5 -4 5 -1 1 6
-10 17 -14 15 -26 -10z"/>
<path d="M2256 2187 c3 -10 9 -15 12 -12 3 3 0 11 -7 18 -10 9 -11 8 -5 -6z"/>
<path d="M1760 2185 c0 -2 27 -18 60 -35 33 -17 60 -28 60 -25 0 2 -27 18 -60
35 -33 17 -60 28 -60 25z"/>
<path d="M2104 2144 c-18 -14 -18 -14 6 -3 31 14 36 19 24 19 -6 0 -19 -7 -30
-16z"/>
<path d="M2180 2156 c0 -2 8 -10 18 -17 15 -13 16 -12 3 4 -13 16 -21 21 -21
13z"/>
<path d="M1730 2141 c0 -6 4 -13 10 -16 6 -3 7 1 4 9 -7 18 -14 21 -14 7z"/>
<path d="M2235 2124 c-18 -16 -22 -22 -9 -15 18 9 53 42 43 41 -2 -1 -17 -12
-34 -26z"/>
<path d="M2147 2122 c1 -8 3 -16 3 -18 0 -2 4 -4 8 -4 5 0 9 7 9 15 0 8 -4 12
-8 9 -4 -2 -9 -1 -12 3 -2 5 -2 2 0 -5z"/>
<path d="M1831 2123 c-1 -6 -4 -20 -7 -30 -5 -17 -5 -17 6 0 6 10 9 23 6 30
-3 9 -5 9 -5 0z"/>
<path d="M1720 2116 c0 -3 9 -10 20 -16 11 -6 20 -8 20 -6 0 3 -9 10 -20 16
-11 6 -20 8 -20 6z"/>
<path d="M1790 2075 c14 -8 30 -14 35 -14 6 0 -1 6 -15 14 -14 8 -29 14 -35
14 -5 0 1 -6 15 -14z"/>
<path d="M1920 2041 l0 -51 58 0 57 0 -3 50 -4 49 -25 -16 c-23 -15 -27 -15
-54 1 l-29 17 0 -50z"/>
<path d="M1811 2011 c-8 -15 -7 -20 6 -25 9 -4 18 -4 21 -1 3 3 0 5 -7 5 -8 0
-11 8 -8 20 6 25 1 26 -12 1z"/>
<path d="M1801 1954 c0 -20 6 -37 17 -45 15 -12 15 -12 5 1 -6 8 -13 29 -16
45 l-4 30 -2 -31z"/>
<path d="M1871 1955 c1 -19 18 -51 18 -35 0 8 -4 22 -9 30 -5 8 -9 11 -9 5z"/>
<path d="M1912 1935 c0 -16 2 -24 5 -17 2 6 8 10 12 8 4 -3 8 1 8 9 0 8 -4 12
-8 9 -4 -2 -10 2 -12 8 -3 7 -5 0 -5 -17z"/>
<path d="M1962 1935 c0 -16 2 -24 5 -17 2 6 9 10 14 6 5 -3 9 2 9 11 0 9 -4
14 -9 11 -5 -4 -12 0 -14 6 -3 7 -5 0 -5 -17z"/>
<path d="M2006 1942 c-2 -4 -1 -14 4 -22 7 -11 9 -9 7 8 -1 24 -3 26 -11 14z"/>
<path d="M2037 1931 c-4 -17 -3 -21 5 -13 5 5 8 16 6 23 -3 8 -7 3 -11 -10z"/>
<path d="M2080 1940 c-9 -6 -10 -10 -3 -10 6 0 15 5 18 10 8 12 4 12 -15 0z"/>
<path d="M3060 1650 c-35 -35 -18 -137 25 -154 74 -28 121 45 80 124 -26 51
-71 64 -105 30z"/>
<path d="M1827 1663 c-4 -3 -7 -22 -7 -40 0 -33 2 -34 33 -31 25 2 33 8 35 27
5 34 -40 66 -61 44z"/>
<path d="M792 1230 c-89 -55 -95 -232 -11 -334 79 -94 198 -86 248 16 51 106
0 272 -100 324 -39 20 -98 17 -137 -6z"/>
<path d="M1355 1238 c-2 -7 -5 -50 -7 -95 l-3 -83 53 0 c46 0 58 4 84 30 26
27 30 36 25 68 -9 52 -55 92 -107 92 -24 0 -42 -5 -45 -12z"/>
<path d="M1853 1229 c-46 -29 -68 -81 -67 -161 2 -127 74 -226 172 -235 91 -9
152 61 152 173 0 71 -13 113 -51 170 -49 71 -140 95 -206 53z"/>
<path d="M3503 1230 c-73 -48 -91 -178 -39 -283 35 -72 81 -109 144 -114 132
-13 198 153 121 305 -37 76 -75 104 -143 109 -39 3 -58 -1 -83 -17z"/>
</g>
</svg>
