<?xml version="1.0" standalone="no"?>
<!DOCTYPE svg PUBLIC "-//W3C//DTD SVG 20010904//EN"
 "http://www.w3.org/TR/2001/REC-SVG-20010904/DTD/svg10.dtd">
<svg version="1.0" xmlns="http://www.w3.org/2000/svg"
 width="1227.000000pt" height="908.000000pt" viewBox="0 0 1227.000000 908.000000"
 preserveAspectRatio="xMidYMid meet">

<g transform="translate(0.000000,908.000000) scale(0.100000,-0.100000)"
fill="#000000" stroke="none">
<path d="M5804 9055 c-4 -8 -4 -29 -2 -46 6 -36 -26 -76 -56 -71 -56 11 -87
-27 -67 -82 9 -22 8 -31 -5 -43 -23 -23 -13 -55 25 -80 20 -13 27 -23 18 -23
-9 0 -19 5 -22 10 -3 6 -24 10 -46 10 -32 0 -41 -4 -51 -25 -9 -20 -8 -31 8
-60 14 -27 16 -37 6 -47 -9 -9 -12 -6 -12 14 0 30 -21 51 -46 46 -12 -2 -20 5
-24 21 -8 36 -36 50 -56 29 -15 -15 -19 -15 -40 -2 -36 24 -64 4 -64 -46 0
-22 -6 -43 -13 -47 -29 -17 -28 -44 2 -74 16 -16 26 -29 23 -30 -4 0 -20 -2
-37 -2 -18 -1 -33 -10 -40 -22 -5 -11 -16 -20 -22 -21 -30 -2 -34 -5 -43 -28
-12 -33 -3 -61 26 -76 14 -8 24 -22 24 -35 0 -33 22 -48 54 -35 34 13 46 13
46 0 0 -5 -8 -10 -18 -10 -10 0 -23 -5 -30 -12 -8 -8 -15 -8 -26 1 -24 20 -70
10 -74 -16 -3 -18 -10 -23 -31 -23 -16 0 -34 -7 -41 -15 -17 -21 -4 -64 24
-77 14 -6 22 -16 20 -23 -3 -6 4 -23 15 -36 17 -22 22 -23 50 -12 26 9 31 9
31 -3 0 -8 -7 -14 -15 -14 -8 0 -19 -9 -25 -20 -15 -28 4 -59 39 -66 17 -4 33
-16 40 -30 12 -28 39 -31 82 -8 40 20 46 12 24 -29 -33 -63 -2 -103 59 -75 29
14 35 15 40 2 6 -16 49 -19 75 -4 10 5 24 23 31 40 9 21 16 28 23 21 17 -17
43 5 61 50 l17 42 39 -38 c21 -20 66 -85 100 -143 60 -102 62 -106 51 -143
-17 -55 -55 -96 -124 -131 -34 -17 -79 -42 -101 -56 -52 -32 -98 -43 -139 -30
-95 29 -168 -82 -99 -151 l28 -28 554 1 c426 1 560 4 577 14 45 25 45 113 0
146 -23 17 -41 21 -93 19 -51 -2 -66 0 -71 13 -3 9 -52 37 -109 64 -131 62
-155 92 -162 209 -5 97 14 164 64 215 49 50 73 62 80 39 15 -48 26 -65 44 -70
11 -3 22 -14 25 -24 8 -24 50 -53 65 -44 5 3 25 1 44 -6 20 -7 41 -9 52 -4 11
5 26 10 34 10 8 1 20 3 27 4 22 2 35 39 23 62 -10 17 -7 24 15 45 14 13 32 24
40 24 7 0 23 13 35 29 18 26 25 29 55 24 30 -5 36 -2 46 20 7 15 17 23 25 20
8 -3 25 2 39 11 44 29 26 83 -32 100 -13 4 -23 15 -23 25 0 33 -26 46 -68 33
-39 -12 -46 -9 -57 26 -5 17 -2 22 10 22 9 0 19 10 22 21 5 18 11 21 46 16 53
-7 77 6 77 42 0 15 9 36 20 46 39 36 16 95 -38 95 -30 0 -54 36 -45 69 3 10
-1 29 -7 41 -10 19 -18 22 -55 17 -40 -4 -43 -2 -42 17 1 11 11 33 21 49 17
25 17 28 1 53 -13 20 -23 25 -50 22 -19 -1 -40 3 -47 10 -16 16 -39 15 -65 -3
-14 -10 -32 -13 -48 -9 -19 5 -32 1 -51 -17 -26 -25 -32 -15 -9 15 45 59 -30
115 -93 70 -21 -14 -22 -14 -22 11 0 14 7 37 16 50 15 23 15 27 0 50 -9 14
-21 25 -26 25 -5 0 -10 15 -12 32 -2 25 -9 35 -30 42 -23 8 -32 6 -52 -13
l-25 -24 -41 22 c-52 27 -75 20 -92 -25 -9 -25 -18 -34 -35 -34 -33 0 -44 -28
-28 -73 7 -20 9 -37 5 -37 -5 0 -15 -6 -23 -14 -11 -12 -13 -6 -9 39 3 43 1
55 -14 66 -11 8 -24 28 -29 44 -8 23 -17 31 -40 33 -16 2 -40 12 -53 23 -30
23 -70 25 -78 4z m80 -44 c15 -16 22 -18 33 -9 19 15 31 1 35 -42 2 -27 7 -34
21 -32 13 2 17 -4 17 -31 0 -32 -2 -35 -41 -41 -47 -8 -59 -2 -59 26 0 44 -51
73 -78 46 -9 -9 -12 -9 -12 1 0 7 9 15 20 18 22 6 25 19 10 58 -19 50 11 53
54 6z m280 3 c11 -4 16 -19 16 -45 0 -32 4 -39 19 -39 31 0 34 -18 12 -61
l-22 -41 21 -5 c23 -6 24 -13 8 -48 -11 -24 -64 -62 -74 -52 -2 2 0 28 6 57
12 65 13 90 1 90 -5 0 -11 -19 -15 -42 -10 -61 -28 -118 -37 -118 -5 0 -6 13
-3 30 9 43 -3 78 -28 86 l-23 7 23 8 c26 10 27 20 7 60 -19 35 -13 49 20 49
18 0 26 8 35 35 13 38 12 38 34 29z m156 -29 c0 -22 5 -35 13 -35 7 0 18 -5
25 -12 9 -9 6 -18 -15 -40 -21 -22 -24 -30 -14 -41 9 -12 7 -16 -9 -20 -12 -3
-26 -19 -33 -36 -15 -41 -39 -42 -31 -1 5 22 2 31 -10 36 -12 4 -13 10 -6 24
6 10 10 35 10 55 0 28 -5 38 -20 42 -11 3 -20 12 -20 20 0 13 2 13 16 2 15
-12 20 -10 37 14 30 40 57 36 57 -8z m-550 -90 c29 -31 37 -31 60 -2 l18 22
11 -28 c6 -16 11 -37 11 -48 0 -14 7 -19 25 -19 20 0 25 -5 25 -24 0 -16 -7
-26 -21 -29 -17 -5 -21 -12 -17 -36 3 -17 1 -31 -4 -31 -4 0 -8 6 -8 13 0 21
-50 87 -66 87 -14 0 -13 -6 5 -36 25 -42 25 -44 5 -44 -9 0 -18 -9 -21 -20 -3
-11 -14 -20 -25 -20 -15 0 -17 3 -8 19 16 31 13 37 -30 54 -42 16 -52 39 -23
55 15 9 15 14 4 50 -8 22 -10 45 -7 51 12 19 41 12 66 -14z m232 -92 c22 -21
30 -24 42 -14 21 18 28 -1 20 -54 -6 -41 -4 -45 14 -45 33 0 34 -15 3 -49 -35
-39 -57 -33 -66 17 -11 64 -26 74 -23 15 1 -29 -1 -56 -5 -59 -9 -9 -48 36
-41 47 3 5 -4 23 -16 39 -22 31 -20 50 6 50 10 0 14 12 14 40 0 47 13 51 52
13z m468 1 c0 -3 -10 -19 -21 -36 -16 -22 -19 -32 -10 -41 19 -19 12 -34 -23
-57 -23 -13 -33 -26 -29 -36 5 -15 -13 -44 -28 -44 -5 0 -9 7 -9 15 0 8 -8 23
-19 34 -18 18 -18 19 5 47 13 16 23 33 24 37 0 11 -30 -7 -58 -33 -27 -25 -25
-26 -40 18 -10 29 -9 32 9 32 13 0 25 11 34 34 19 44 31 52 45 26 14 -26 23
-25 57 4 21 18 32 22 45 15 10 -5 18 -12 18 -15z m178 -56 c7 -7 28 -11 46
-10 42 4 58 -16 28 -36 -12 -8 -22 -23 -22 -33 0 -10 -8 -20 -19 -24 -10 -3
-26 -14 -36 -25 -22 -24 -29 -25 -49 -4 -23 22 -20 30 14 51 17 9 30 21 30 25
0 7 -58 -9 -75 -22 -5 -4 -23 -10 -40 -12 -16 -3 -36 -7 -44 -9 -26 -8 -21 18
12 56 29 33 36 36 54 27 17 -10 26 -8 45 8 27 23 40 24 56 8z m-407 -68 c7
-22 10 -42 8 -44 -2 -2 -28 1 -57 7 -62 13 -65 30 -12 58 19 11 38 19 42 19 4
0 13 -18 19 -40z m-534 0 c24 -16 50 -30 57 -30 9 0 15 -22 20 -67 4 -37 13
-75 21 -83 12 -14 11 -16 -8 -15 -29 2 -84 42 -90 65 -3 11 -16 20 -33 22 -25
3 -29 7 -26 31 2 16 -4 40 -13 54 -19 28 -14 53 11 53 9 0 36 -13 61 -30z
m-272 -10 l18 -20 22 20 c20 19 23 19 29 5 3 -9 6 -25 6 -36 0 -24 25 -35 45
-19 12 10 15 6 21 -28 6 -39 7 -40 55 -46 63 -8 63 -21 2 -21 -27 0 -64 -3
-83 -5 -31 -5 -37 -1 -70 43 -19 26 -37 42 -38 37 -7 -20 20 -70 54 -100 36
-31 41 -49 22 -80 -12 -18 -13 -17 -25 11 -11 26 -17 30 -43 27 -41 -4 -58 21
-28 43 21 17 21 17 -21 44 l-43 27 21 22 c16 17 20 30 16 49 -12 46 10 60 40
27z m471 -21 c15 -17 13 -19 -35 -43 -28 -14 -52 -26 -55 -26 -12 0 -14 36 -4
69 12 37 13 38 45 28 18 -6 40 -18 49 -28z m545 -25 c16 -14 23 -15 49 -4 16
7 37 10 46 6 13 -5 13 -10 -6 -36 -13 -18 -30 -30 -44 -30 -13 0 -42 -7 -65
-15 -38 -13 -41 -13 -41 3 0 9 7 26 15 36 8 11 15 28 15 38 0 22 8 23 31 2z
m-131 -28 c0 -16 7 -27 20 -31 25 -8 25 -20 0 -53 -14 -17 -17 -29 -10 -36 16
-16 12 -23 -27 -46 -35 -21 -36 -23 -19 -36 16 -11 17 -16 6 -29 -12 -15 -81
-55 -94 -55 -7 0 9 52 28 88 9 17 16 36 16 42 0 21 -21 -2 -47 -53 l-27 -52
-10 34 c-9 30 -7 36 11 48 18 12 20 18 11 48 -13 40 -5 65 20 65 13 0 22 10
28 31 7 23 18 35 44 44 49 18 50 18 50 -9z m443 -1 c52 10 58 -12 14 -49 -41
-35 -44 -43 -20 -61 25 -19 6 -35 -41 -35 -51 0 -59 -6 -44 -33 15 -28 -13
-47 -69 -47 -60 0 -68 23 -22 62 82 69 92 79 86 84 -3 4 -23 -4 -43 -17 l-37
-22 7 37 c6 33 4 38 -13 43 -34 9 -12 24 23 17 28 -5 38 -1 60 21 26 25 28 26
46 10 13 -12 27 -15 53 -10z m-703 -36 c13 -18 28 -28 36 -25 8 3 20 9 28 12
20 8 28 -93 9 -122 -11 -18 -12 -30 -3 -64 6 -23 9 -44 7 -46 -3 -3 -8 8 -12
23 -9 39 -35 64 -56 58 -12 -4 -33 9 -65 39 -45 43 -46 47 -31 64 10 10 17 32
17 49 0 16 3 33 7 36 15 16 43 5 63 -24z m489 -29 c16 0 17 -6 11 -41 -10 -54
-23 -66 -54 -50 -22 12 -46 49 -46 72 0 12 41 29 58 23 8 -2 22 -4 31 -4z
m273 -37 c3 -26 6 -28 41 -25 50 4 62 -22 23 -53 -22 -18 -26 -27 -20 -49 l6
-26 -55 6 c-53 6 -55 5 -59 -17 -3 -27 -28 -31 -122 -20 -55 7 -77 31 -28 31
65 0 117 37 97 70 -4 6 5 10 19 10 46 0 76 18 76 44 0 14 -5 28 -10 31 -13 8
-3 25 15 25 7 0 15 -12 17 -27z m-1152 2 c0 -13 -40 -82 -53 -94 -12 -10 -19
-7 -36 15 -12 15 -21 40 -21 55 0 28 1 29 55 29 30 0 55 -2 55 -5z m-279 -44
c18 -25 27 -29 50 -24 24 5 29 2 29 -15 0 -12 -4 -24 -10 -27 -16 -10 -12 -57
7 -77 19 -21 11 -32 -28 -42 -25 -5 -27 -4 -25 27 l1 32 -52 -2 c-50 -2 -52
-1 -41 17 7 10 10 20 8 22 -3 2 -18 10 -35 18 -40 21 -41 54 -1 58 18 2 30 11
33 23 8 28 39 23 64 -10z m509 19 c26 0 40 -5 44 -17 10 -25 -10 -40 -34 -25
-11 6 -28 12 -38 12 -19 0 -42 18 -42 33 0 5 7 6 16 3 9 -3 33 -6 54 -6z m-84
-35 c9 -14 26 -25 39 -25 21 0 21 -3 14 -47 -13 -80 -11 -92 16 -105 19 -8 25
-19 25 -43 0 -33 -31 -72 -49 -61 -5 4 -15 40 -22 81 -15 87 -32 100 -27 20 2
-34 -1 -55 -8 -55 -17 0 -45 69 -38 96 4 16 1 31 -10 43 -15 16 -15 19 -1 31
8 7 15 27 15 45 0 51 20 60 46 20z m537 -50 c-28 -21 -38 15 -9 37 20 16 21
16 24 -3 2 -12 -5 -27 -15 -34z m-338 -2 c15 -23 27 -30 49 -29 25 1 31 -4 38
-31 5 -18 15 -33 23 -33 20 0 23 -11 13 -48 l-9 -33 -39 34 c-41 37 -79 61
-86 54 -2 -2 18 -26 46 -54 27 -28 50 -55 50 -62 0 -6 -14 -11 -31 -11 -23 0
-32 5 -36 21 -5 17 -11 19 -32 14 -52 -14 -56 -12 -56 30 0 32 -4 40 -20 43
-30 6 -40 19 -27 35 7 8 9 27 6 46 -7 32 -2 36 39 32 9 -1 20 5 23 14 9 22 25
14 49 -22z m-424 -24 c32 -41 33 -41 85 -36 58 6 67 -2 52 -42 l-9 -24 -20 21
c-21 23 -44 28 -54 12 -4 -6 -13 -7 -23 -1 -9 5 -36 9 -59 9 -44 1 -83 25 -83
52 0 12 46 43 72 49 3 0 21 -18 39 -40z m806 0 c8 -8 17 -8 33 1 16 9 25 9 33
1 6 -6 28 -11 49 -11 42 0 48 -12 19 -32 -10 -8 -21 -25 -23 -38 -2 -21 -9
-26 -39 -28 -32 -3 -36 -6 -31 -24 5 -19 2 -20 -41 -14 -37 6 -47 4 -55 -10
-7 -12 -17 -15 -41 -9 -18 4 -31 12 -29 18 2 7 37 29 78 49 57 28 69 37 49 37
-14 1 -51 -8 -82 -18 -32 -11 -57 -16 -57 -10 0 22 22 49 40 49 10 0 32 11 47
25 32 28 35 29 50 14z m-172 -98 c-7 -24 -35 -29 -35 -6 0 13 31 38 38 30 2
-2 1 -13 -3 -24z m467 1 l26 -17 -26 -39 c-15 -21 -37 -43 -50 -47 -20 -8 -25
-4 -38 26 -15 38 -17 55 -8 79 8 22 62 21 96 -2z m-1152 -10 c0 -10 5 -23 11
-29 8 -8 3 -22 -16 -53 -29 -46 -42 -44 -71 11 -21 41 -18 54 19 72 42 21 57
21 57 -1z m75 6 c19 -9 28 -9 37 0 9 9 16 8 30 -5 10 -9 18 -22 18 -30 0 -18
19 -16 27 3 6 15 8 15 20 -2 7 -10 13 -27 13 -39 0 -28 10 -37 26 -24 14 12
19 5 29 -38 9 -43 -11 -44 -68 -5 -23 16 -50 32 -60 35 -31 11 -1 -30 43 -59
62 -41 58 -64 -11 -64 -26 0 -29 3 -23 25 5 21 3 25 -14 25 -12 0 -33 5 -48
10 -21 8 -24 14 -16 22 16 16 15 38 0 38 -7 0 -19 4 -27 9 -12 8 -12 12 -2 25
11 13 11 20 -3 41 -9 14 -14 30 -11 35 8 13 9 12 40 -2z m-303 -20 c28 -20 32
-20 43 -5 17 24 30 21 54 -9 31 -40 27 -54 -13 -47 -19 3 -52 2 -73 -2 -32 -6
-35 -9 -18 -15 11 -5 36 -9 56 -9 33 -1 36 -3 32 -25 -4 -21 -8 -23 -27 -15
-16 8 -34 6 -66 -5 -48 -16 -72 -8 -51 18 13 15 10 19 -34 41 -33 17 -25 40
15 40 31 0 35 3 38 28 4 33 6 33 44 5z m896 -32 l30 11 -23 -51 c-24 -54 -41
-196 -23 -196 6 0 28 19 49 43 21 23 36 34 32 23 -5 -16 -2 -18 26 -14 l32 5
-51 -45 c-71 -62 -93 -108 -98 -212 -2 -48 1 -104 8 -128 16 -62 78 -120 165
-156 39 -16 77 -36 85 -44 13 -13 8 -14 -40 -8 -37 5 -60 13 -70 26 -8 11 -40
32 -70 47 -65 34 -96 82 -105 163 -3 30 -9 75 -12 100 l-6 45 -8 -50 c-9 -57
4 -163 26 -205 18 -34 49 -60 103 -84 68 -31 60 -43 -25 -41 -70 1 -77 3 -95
28 -32 43 -86 34 -116 -20 -11 -19 -52 -9 -52 13 0 8 11 36 24 62 27 53 44
118 28 108 -5 -3 -25 -37 -43 -76 -31 -64 -37 -70 -65 -70 -17 0 -47 -10 -65
-23 -26 -18 -44 -22 -73 -19 l-39 5 84 43 c97 50 134 88 155 161 l15 52 -71
118 c-39 65 -89 134 -112 154 -38 34 -39 37 -19 44 11 3 21 15 21 25 0 9 9 20
20 23 15 4 20 14 20 39 l1 33 14 -25 c8 -14 14 -48 15 -76 0 -65 40 -144 92
-187 50 -40 68 -32 68 31 0 121 -39 217 -99 243 -17 8 -31 17 -31 20 0 13 26
27 58 31 28 4 32 2 32 -17 0 -51 84 -215 109 -215 17 0 35 80 37 160 2 85 12
129 25 108 6 -10 15 -10 37 -2z m269 -9 c-10 -15 -12 -29 -6 -38 15 -23 11
-28 -32 -39 -36 -10 -40 -14 -35 -34 5 -20 1 -24 -25 -30 -17 -3 -40 -6 -51
-6 -16 0 -17 3 -7 23 7 12 26 35 43 50 l31 28 -30 -6 c-16 -3 -43 -15 -58 -26
-16 -12 -31 -18 -34 -15 -10 10 47 56 68 56 11 0 22 6 25 14 4 10 15 13 39 9
25 -4 37 0 51 15 26 28 40 27 21 -1z m312 -3 c41 22 49 20 53 -11 2 -21 10
-29 35 -35 18 -5 35 -13 38 -19 11 -18 -15 -39 -41 -33 -19 5 -26 1 -34 -21
-6 -15 -16 -25 -23 -22 -41 15 -57 17 -57 8 0 -6 -7 -11 -15 -11 -9 0 -15 9
-15 24 0 33 -24 50 -60 42 -17 -3 -30 -1 -30 4 0 6 32 10 73 10 50 0 67 3 57
10 -8 5 -28 10 -43 10 -19 0 -27 4 -23 13 3 6 9 20 12 30 6 16 8 17 24 2 17
-15 21 -15 49 -1z m-515 -23 c3 -4 -3 -16 -14 -26 -13 -12 -20 -31 -20 -56 0
-21 -4 -41 -10 -44 -15 -9 -12 61 4 100 15 34 29 44 40 26z m-160 -99 c-1 -89
-14 -94 -52 -21 -44 86 -43 97 11 90 l42 -6 -1 -63z m-641 44 c9 -7 17 -18 17
-23 0 -6 9 -22 21 -37 l20 -26 -32 -29 c-18 -17 -35 -28 -39 -26 -3 2 -19 -5
-36 -16 -39 -25 -51 -24 -58 6 -5 20 -13 25 -36 25 -41 0 -46 17 -15 46 15 14
24 31 21 39 -7 19 13 19 37 0 26 -19 47 -8 47 26 0 32 22 38 53 15z m1092 -22
c28 -1 69 -3 93 -3 38 -1 42 -3 42 -26 0 -14 7 -28 15 -31 24 -10 18 -34 -9
-34 -13 0 -27 -7 -30 -16 -10 -26 -59 -14 -66 16 -5 20 -15 27 -47 34 -27 6
-43 15 -46 27 -4 15 -15 19 -49 19 l-43 1 30 14 c17 7 37 10 45 7 8 -4 38 -7
65 -8z m-610 -27 c34 -34 55 -101 55 -179 l0 -42 -31 30 c-17 16 -39 45 -49
64 -20 40 -34 160 -18 160 5 0 25 -15 43 -33z m-289 -41 c10 -22 9 -26 -15
-36 -31 -13 -85 -59 -78 -66 3 -3 32 8 66 25 82 42 96 41 74 -4 -12 -26 -20
-32 -29 -24 -15 12 -54 -21 -54 -45 0 -8 -10 -22 -21 -30 -20 -13 -23 -13 -38
6 -16 19 -18 19 -56 4 -50 -21 -64 -8 -31 30 18 23 22 34 14 47 -13 25 7 47
44 47 25 0 28 3 23 21 -8 23 -7 23 66 7 9 -2 13 4 12 20 -4 29 9 28 23 -2z
m834 5 c0 -16 8 -20 38 -23 30 -2 38 -7 40 -26 2 -13 14 -27 28 -32 16 -6 22
-15 18 -25 -4 -8 -1 -22 6 -30 14 -17 5 -36 -15 -29 -7 3 -23 1 -34 -6 -16 -8
-26 -7 -47 6 -21 14 -30 15 -45 6 -17 -11 -22 -8 -39 20 -11 18 -20 36 -20 41
0 4 -9 7 -19 7 -20 0 -31 18 -31 51 0 16 4 17 25 9 14 -5 39 -20 55 -32 48
-35 49 -9 1 32 -45 39 -43 48 12 49 20 1 27 -4 27 -18z m-390 -576 c17 -21 8
-27 -24 -19 -21 5 -24 9 -15 20 15 18 24 18 39 -1z m-170 -15 c0 -5 -9 -10
-19 -10 -11 0 -23 5 -26 10 -4 6 5 10 19 10 14 0 26 -4 26 -10z m-340 -40 c16
-9 90 -101 90 -113 0 -12 -168 -1 -183 12 -22 17 -22 69 0 93 18 20 64 24 93
8z m429 -27 c14 -17 34 -45 43 -61 l18 -29 -74 1 c-47 1 -79 6 -90 15 -17 15
-76 95 -76 104 0 3 34 4 76 3 73 -1 78 -3 103 -33z m373 28 c7 -1 88 -106 88
-114 0 -4 -142 -2 -162 2 -8 1 -78 102 -78 112 0 4 129 5 152 0z"/>
<path d="M4884 7145 c-3 -8 -4 -317 -1 -687 3 -564 7 -689 21 -772 36 -217
109 -440 201 -613 32 -60 40 -83 29 -83 -28 0 -93 -40 -118 -72 -13 -18 -48
-85 -78 -148 -49 -107 -53 -120 -53 -190 0 -87 21 -142 86 -228 84 -111 305
-257 531 -350 l118 -49 -65 -57 c-82 -72 -88 -91 -83 -268 3 -128 5 -138 27
-162 13 -14 47 -33 75 -43 46 -16 94 -18 486 -18 474 0 510 3 571 55 l34 28 3
138 c5 179 -1 198 -83 270 l-65 57 118 49 c226 93 447 239 531 350 64 86 85
141 86 228 0 70 -4 83 -53 189 -64 141 -91 176 -150 204 -26 12 -49 23 -51 24
-2 1 17 42 42 90 66 130 115 261 152 408 58 228 60 265 60 995 l0 665 -1183 3
c-1029 2 -1183 0 -1188 -13z m2346 -455 l0 -440 -1160 0 -1160 0 0 440 0 440
1160 0 1160 0 0 -440z m-1755 -574 l25 -16 0 -195 c0 -107 -2 -195 -4 -195 -2
0 -17 7 -32 15 -40 21 -63 19 -146 -10 -39 -14 -82 -25 -95 -25 l-23 0 0 195
0 195 38 0 c21 0 48 7 60 16 69 48 124 54 177 20z m230 -6 c31 -16 72 -30 91
-30 l34 0 0 -195 0 -195 -25 0 c-13 0 -54 11 -91 25 -77 29 -113 31 -154 10
l-30 -16 0 194 c0 172 2 196 18 209 41 36 85 36 157 -2z m864 15 c16 -8 31
-22 35 -30 9 -24 7 -385 -1 -385 -5 1 -19 7 -33 15 -35 20 -81 18 -140 -5 -28
-11 -69 -20 -90 -20 l-40 0 0 190 0 190 35 0 c21 0 57 12 88 30 57 33 103 38
146 15z m240 -12 c25 -15 64 -30 86 -33 l40 -5 3 -187 2 -188 -45 0 c-25 0
-59 7 -75 15 -48 25 -113 30 -151 11 -17 -9 -34 -16 -36 -16 -1 0 -3 85 -3
188 0 136 3 193 13 204 36 45 101 50 166 11z m-1639 -248 l0 -195 59 0 c37 0
77 8 106 20 59 25 92 25 130 0 38 -25 56 -25 97 0 42 25 74 25 133 0 29 -12
69 -20 106 -20 l59 0 0 195 c0 170 2 194 15 189 13 -5 15 -34 13 -203 l-3
-196 -155 -3 c-90 -1 -164 -7 -177 -13 -13 -7 -34 -9 -55 -4 -18 4 -106 10
-195 12 l-163 4 0 198 c0 109 3 201 7 204 19 20 23 -10 23 -188z m1161 -193
c39 -2 69 3 103 18 60 25 106 26 139 0 14 -11 35 -20 47 -20 12 0 33 9 47 20
14 11 38 20 54 20 16 0 51 -9 79 -20 29 -11 74 -20 105 -20 l55 0 0 196 c0
152 3 195 13 192 9 -4 13 -55 15 -201 l2 -197 -152 0 c-119 -1 -157 -4 -172
-15 -25 -19 -63 -19 -96 0 -19 11 -64 14 -177 15 l-153 0 0 194 c0 147 3 195
13 199 9 3 13 -41 17 -187 l5 -191 56 -3z m-1219 166 l3 -203 165 -5 c105 -3
173 -10 187 -17 12 -7 34 -13 48 -13 14 0 36 6 48 13 14 7 82 14 187 17 l165
5 3 203 c2 170 5 202 17 202 13 0 15 -32 15 -220 l0 -220 -182 0 c-145 -1
-187 -4 -202 -15 -11 -8 -34 -15 -51 -15 -17 0 -40 7 -51 15 -15 11 -57 14
-201 15 l-183 0 0 220 c0 188 2 220 15 220 12 0 15 -32 17 -202z m1108 -3 l0
-205 163 0 c127 -1 166 -4 181 -15 11 -8 36 -15 56 -15 20 0 45 7 56 15 15 11
54 14 182 15 l162 0 0 205 c0 176 2 205 15 205 13 0 15 -31 15 -220 l0 -220
-178 0 c-141 0 -182 -3 -198 -15 -25 -19 -85 -19 -110 0 -15 11 -56 14 -196
15 l-178 0 0 220 c0 189 2 220 15 220 13 0 15 -29 15 -205z m113 -474 c62 -24
161 -107 196 -165 11 -18 28 -61 37 -95 13 -53 14 -74 4 -128 -16 -94 -60
-184 -123 -251 -29 -31 -71 -86 -92 -121 -21 -36 -75 -101 -119 -146 -92 -93
-142 -118 -222 -113 -46 3 -49 5 -52 33 -6 70 77 164 250 284 70 48 109 96 91
111 -4 3 -30 12 -58 19 -57 14 -91 41 -111 88 -22 51 -17 76 31 149 43 65 56
104 35 104 -5 0 -10 -8 -10 -19 0 -10 -16 -39 -35 -64 -60 -79 -69 -126 -35
-189 l19 -37 -39 14 c-73 26 -80 32 -81 78 -1 42 -15 101 -19 82 -1 -5 -2 -35
-1 -65 1 -30 -2 -60 -6 -66 -4 -5 -39 -36 -77 -67 -61 -49 -76 -57 -112 -57
-25 0 -44 5 -47 13 -3 9 -9 9 -26 -1 -11 -7 -21 -9 -21 -4 0 16 25 32 51 32
16 0 40 11 56 24 l27 24 -17 56 c-15 48 -24 59 -63 82 -42 25 -49 26 -136 19
-84 -7 -91 -6 -79 8 22 27 5 55 -37 59 -32 3 -37 6 -35 26 2 15 -3 22 -14 22
-12 0 -5 12 25 43 56 57 208 133 283 141 31 3 85 19 120 36 156 73 320 88 442
41z m-1096 -511 l72 -110 -35 0 c-28 0 -44 8 -71 35 -19 19 -36 35 -38 35 -1
0 -21 -27 -44 -60 -23 -33 -44 -60 -47 -60 -13 0 -34 75 -34 120 0 58 18 99
56 129 50 39 63 30 141 -89z m1807 89 c38 -30 56 -71 56 -129 0 -45 -21 -120
-34 -120 -3 0 -24 27 -47 60 -23 33 -43 60 -44 60 -2 0 -19 -16 -38 -35 -27
-27 -43 -35 -72 -35 -37 0 -37 0 -21 23 8 12 41 61 73 110 62 95 79 104 127
66z m-1246 -34 c24 -53 10 -67 -44 -43 -23 11 -28 10 -44 -10 -23 -28 -28 -28
-33 1 -3 19 -5 17 -12 -12 -6 -27 -10 -30 -17 -17 -17 31 12 69 67 88 66 23
70 22 83 -7z m-751 -228 c65 -121 234 -251 479 -369 193 -92 248 -129 282
-187 25 -42 27 -57 30 -166 l4 -120 -34 36 c-44 47 -98 78 -245 138 -325 134
-542 288 -619 438 -24 49 -29 70 -29 133 0 68 5 84 45 170 l45 95 7 -58 c4
-32 20 -82 35 -110z m2178 -97 c0 -63 -5 -84 -30 -133 -76 -151 -292 -304
-618 -438 -141 -58 -201 -91 -239 -132 l-28 -29 0 118 c0 107 2 121 25 159 31
55 89 92 295 192 312 152 481 312 498 471 l6 57 45 -95 c42 -87 46 -101 46
-170z m-1114 220 c73 -13 169 -42 169 -51 0 -6 -250 -19 -258 -14 -2 2 12 12
30 24 32 20 33 21 7 21 -14 0 -35 -9 -47 -20 -11 -11 -23 -16 -26 -11 -6 9 30
45 54 54 8 3 16 6 16 6 1 1 26 -3 55 -9z m-911 -61 c16 -12 45 -25 64 -28 l35
-6 -53 -77 -53 -77 -46 47 c-26 26 -47 52 -47 56 0 11 60 106 66 106 3 0 18
-10 34 -21z m1808 -24 c18 -25 32 -51 32 -58 0 -21 -89 -102 -99 -92 -6 6 -30
39 -55 75 l-45 64 45 12 c25 6 53 19 62 28 9 9 19 16 22 16 3 0 21 -20 38 -45z
m-1569 -127 c51 -59 136 -149 190 -198 161 -149 403 -330 440 -330 22 0 170
101 291 198 112 91 315 291 384 380 27 34 52 62 57 62 8 0 119 -155 119 -166
0 -23 -184 -136 -360 -222 -263 -128 -280 -150 -280 -361 0 -135 8 -170 44
-200 9 -8 16 -17 16 -22 0 -5 -125 -9 -277 -9 l-277 0 26 28 c44 47 48 65 48
203 0 211 -17 233 -280 361 -160 77 -360 199 -360 219 0 15 111 170 119 167 4
-2 49 -51 100 -110z m259 -672 c52 -27 96 -69 106 -103 5 -16 -2 -31 -26 -58
-32 -37 -33 -37 -90 -31 -91 9 -168 48 -168 85 0 12 114 129 128 131 1 0 24
-11 50 -24z m858 -32 c35 -31 64 -65 64 -74 0 -26 -44 -57 -103 -75 -79 -23
-119 -20 -150 13 -36 37 -36 80 1 114 22 22 109 77 120 78 2 0 33 -25 68 -56z
m-953 -176 c31 -10 152 -13 472 -13 389 0 434 2 475 18 24 10 55 27 67 39 l23
21 0 -129 c0 -150 -5 -163 -77 -191 -44 -16 -85 -18 -493 -18 -593 0 -570 -8
-570 208 l0 129 30 -26 c17 -14 50 -31 73 -38z"/>
<path d="M6043 7076 c-26 -27 -29 -36 -9 -36 7 0 16 -9 19 -20 3 -11 10 -20
16 -20 6 0 11 9 11 20 0 13 7 20 20 20 11 0 20 5 20 11 0 6 -9 13 -20 16 -11
3 -20 12 -20 19 0 20 -12 17 -37 -10z"/>
<path d="M5760 7001 c0 -24 25 -34 40 -16 15 18 5 35 -21 35 -12 0 -19 -7 -19
-19z"/>
<path d="M6330 7001 c0 -24 25 -34 40 -16 15 18 5 35 -21 35 -12 0 -19 -7 -19
-19z"/>
<path d="M5674 6999 c-3 -6 0 -18 9 -26 18 -18 37 -9 37 18 0 21 -34 27 -46 8z"/>
<path d="M5851 6996 c-16 -19 -6 -36 20 -36 15 0 20 6 17 22 -4 27 -21 33 -37
14z"/>
<path d="M6257 7004 c-16 -16 -7 -44 14 -44 15 0 20 5 17 22 -3 22 -19 33 -31
22z"/>
<path d="M6417 6996 c-7 -17 18 -40 33 -31 5 3 10 15 10 26 0 23 -35 27 -43 5z"/>
<path d="M6000 6955 c0 -55 -6 -56 -126 -19 -125 39 -199 21 -240 -59 -29 -55
3 -164 71 -246 22 -25 34 -31 66 -31 60 0 100 50 64 80 -13 10 -15 9 -15 -9 0
-11 -4 -21 -8 -21 -13 0 -35 47 -28 59 11 17 44 13 55 -6 6 -10 11 -13 11 -7
0 5 -7 19 -15 30 -19 25 -19 58 1 75 25 21 54 -20 48 -69 -4 -29 -3 -33 5 -16
5 12 15 25 21 29 19 12 39 -17 33 -47 -6 -30 -23 -39 -23 -12 0 9 -5 14 -12
12 -21 -7 -20 -26 3 -49 17 -17 29 -20 62 -16 22 3 47 13 56 22 15 15 14 16
-9 13 -22 -3 -25 1 -25 27 0 25 4 30 21 27 16 -2 22 2 20 15 -1 14 6 18 34 18
30 0 35 -3 33 -23 -3 -20 0 -21 17 -12 16 8 22 8 26 -4 11 -30 0 -51 -26 -48
-24 4 -24 3 -7 -15 25 -26 103 -25 123 2 16 21 14 37 -4 43 -7 2 -12 -3 -12
-12 0 -27 -17 -18 -23 12 -6 30 14 59 33 47 6 -4 16 -17 21 -29 8 -17 9 -13 5
16 -6 49 23 90 48 69 20 -17 20 -50 1 -75 -8 -11 -15 -25 -15 -30 0 -6 5 -3
11 7 11 19 44 23 55 6 7 -12 -15 -59 -28 -59 -4 0 -8 10 -8 21 0 18 -2 19 -15
9 -37 -30 4 -80 65 -80 35 0 43 5 71 43 120 163 98 293 -53 313 -31 4 -64 -1
-122 -20 -109 -36 -114 -35 -118 17 -6 81 -23 43 -28 -63 l-5 -105 -45 0 -45
0 -3 108 c-1 60 -7 107 -12 107 -6 0 -10 -20 -10 -45z m-154 -42 l49 -17 -32
-7 c-18 -3 -44 -14 -57 -23 -14 -9 -35 -16 -46 -16 -30 0 -61 -17 -87 -48
l-23 -27 0 46 c0 37 5 50 28 71 46 43 89 48 168 21z m584 2 c39 -20 60 -53 60
-92 0 -37 -16 -52 -25 -24 -6 21 -61 51 -92 51 -10 0 -28 7 -40 15 -12 8 -39
19 -60 23 l-38 8 45 16 c58 21 113 22 150 3z m-112 -76 c18 -10 44 -19 56 -19
13 0 35 -9 50 -21 21 -16 26 -29 26 -62 l-1 -42 -13 30 c-14 33 -53 72 -62 63
-3 -3 4 -21 15 -39 26 -43 26 -70 1 -100 -22 -28 -25 -19 -8 28 11 29 10 35
-10 56 -12 13 -22 28 -22 35 0 23 -23 62 -40 67 -25 8 -66 -13 -79 -41 -7 -16
-19 -24 -36 -24 -34 0 -31 14 8 39 29 19 30 21 9 21 -12 0 -34 -7 -47 -16 -22
-14 -25 -14 -25 -1 0 31 63 59 115 50 17 -3 45 -14 63 -24z m-350 5 c12 -8 22
-22 22 -30 0 -13 -3 -13 -22 0 -12 9 -32 16 -43 16 -17 0 -15 -4 13 -26 17
-14 32 -30 32 -35 0 -19 -43 3 -76 37 -17 19 -38 34 -47 34 -19 0 -57 -46 -57
-70 0 -9 -9 -25 -20 -35 -23 -21 -26 -46 -8 -75 16 -26 0 -40 -18 -16 -20 28
-17 79 6 109 22 27 25 37 11 37 -17 0 -61 -53 -61 -74 -1 -19 -2 -19 -11 -4
-23 40 26 108 77 108 13 0 38 9 56 20 40 24 114 26 146 4z"/>
<path d="M6050 6975 c-15 -18 -5 -35 21 -35 12 0 19 7 19 19 0 24 -25 34 -40
16z"/>
<path d="M5924 6965 c-4 -9 -2 -21 4 -27 15 -15 44 -1 40 19 -4 23 -36 29 -44
8z"/>
<path d="M6167 6967 c-3 -8 -2 -20 3 -27 11 -18 42 -4 38 17 -4 22 -34 29 -41
10z"/>
<path d="M5607 6963 c-4 -3 -7 -15 -7 -25 0 -23 38 -25 47 -2 8 21 -24 43 -40
27z"/>
<path d="M6497 6963 c-15 -14 -7 -43 12 -43 26 0 36 17 21 35 -14 16 -23 19
-33 8z"/>
<path d="M6051 6906 c-16 -19 -6 -36 20 -36 15 0 20 6 17 22 -4 27 -21 33 -37
14z"/>
<path d="M5560 6871 c0 -27 19 -36 37 -18 18 18 9 37 -18 37 -12 0 -19 -7 -19
-19z"/>
<path d="M6534 6875 c-4 -9 -2 -21 4 -27 15 -15 44 -1 40 19 -4 23 -36 29 -44
8z"/>
<path d="M6051 6836 c-16 -19 -6 -36 20 -36 15 0 20 6 17 22 -4 27 -21 33 -37
14z"/>
<path d="M5560 6781 c0 -27 19 -36 37 -18 18 18 9 37 -18 37 -12 0 -19 -7 -19
-19z"/>
<path d="M6530 6781 c0 -22 21 -33 40 -21 18 11 4 40 -20 40 -13 0 -20 -7 -20
-19z"/>
<path d="M5590 6701 c0 -27 19 -36 37 -18 18 18 9 37 -18 37 -12 0 -19 -7 -19
-19z"/>
<path d="M6500 6701 c0 -24 13 -33 35 -25 23 9 14 38 -13 42 -16 3 -22 -2 -22
-17z"/>
<path d="M5674 6578 c11 -35 22 -65 23 -67 2 -2 29 8 60 22 176 78 466 71 665
-17 13 -6 19 -3 23 10 4 11 15 41 25 67 22 57 8 58 -23 2 -12 -22 -23 -42 -24
-44 -2 -3 -19 3 -37 12 -135 64 -479 65 -632 1 -20 -8 -37 -14 -39 -12 -1 2
-12 22 -25 46 -34 60 -40 52 -16 -20z"/>
<path d="M6045 6560 c-9 -15 4 -30 26 -30 12 0 19 7 19 20 0 21 -33 29 -45 10z"/>
<path d="M5874 6545 c-4 -9 -2 -21 4 -27 15 -15 44 -1 40 19 -4 23 -36 29 -44
8z"/>
<path d="M5975 6551 c-3 -5 -1 -12 5 -16 5 -3 10 1 10 9 0 18 -6 21 -15 7z"/>
<path d="M6146 6551 c-4 -5 -2 -12 3 -15 5 -4 12 -2 15 3 4 5 2 12 -3 15 -5 4
-12 2 -15 -3z"/>
<path d="M6223 6544 c-8 -21 13 -42 28 -27 13 13 5 43 -11 43 -6 0 -13 -7 -17
-16z"/>
<path d="M5805 6520 c-3 -5 -1 -10 4 -10 6 0 11 5 11 10 0 6 -2 10 -4 10 -3 0
-8 -4 -11 -10z"/>
<path d="M6316 6521 c-4 -5 -2 -12 3 -15 5 -4 12 -2 15 3 4 5 2 12 -3 15 -5 4
-12 2 -15 -3z"/>
<path d="M5717 6503 c-15 -14 -7 -43 12 -43 26 0 36 17 21 35 -14 16 -23 19
-33 8z"/>
<path d="M5894 6495 c-78 -14 -152 -43 -172 -68 -23 -27 -11 -69 27 -94 19
-13 41 -23 49 -23 8 0 0 10 -19 23 -26 17 -34 30 -34 52 0 25 7 33 36 48 145
70 532 56 603 -22 21 -23 11 -48 -31 -80 -38 -28 -14 -27 28 2 37 25 50 67 28
93 -56 68 -324 104 -515 69z"/>
<path d="M6387 6503 c-15 -14 -7 -43 12 -43 26 0 36 17 21 35 -14 16 -23 19
-33 8z"/>
<path d="M5875 6427 c-73 -19 -97 -34 -93 -60 8 -55 201 -90 387 -69 115 12
174 35 179 70 3 18 -5 26 -45 44 -42 19 -69 22 -213 25 -110 2 -182 -2 -215
-10z m375 -28 c98 -21 92 -41 -21 -65 -128 -27 -404 -5 -416 33 -5 14 59 33
147 44 73 8 222 2 290 -12z"/>
<path d="M5345 6051 c-22 -10 -53 -21 -70 -26 -20 -5 -24 -10 -13 -12 9 -2 42
7 75 20 32 14 69 27 83 30 23 4 22 4 -5 5 -16 1 -48 -7 -70 -17z"/>
<path d="M5315 5960 c-87 -36 -62 -39 31 -4 37 14 76 23 86 21 10 -3 18 -1 18
4 0 18 -66 7 -135 -21z"/>
<path d="M5320 5880 c-47 -18 -66 -29 -50 -29 14 0 45 9 70 20 25 11 60 21 78
22 17 0 32 5 32 9 0 16 -56 6 -130 -22z"/>
<path d="M5365 5814 c-22 -9 -58 -22 -80 -29 -27 -9 -33 -14 -18 -14 12 -1 45
8 73 19 28 11 62 20 75 20 14 0 25 5 25 10 0 14 -28 12 -75 -6z"/>
<path d="M5615 6060 c17 -4 54 -17 83 -29 29 -11 60 -21 70 -21 9 0 -16 14
-56 30 -40 17 -85 30 -100 29 -27 -1 -27 -1 3 -9z"/>
<path d="M5580 5981 c0 -5 8 -7 18 -4 10 2 49 -7 86 -21 38 -14 76 -26 85 -26
9 1 -18 14 -59 30 -74 30 -130 38 -130 21z"/>
<path d="M5580 5901 c0 -5 15 -9 33 -9 17 0 54 -10 80 -21 27 -12 58 -21 70
-20 15 0 17 2 7 6 -8 3 -43 16 -77 29 -63 24 -113 31 -113 15z"/>
<path d="M5590 5820 c0 -5 13 -10 29 -10 16 0 48 -9 72 -20 24 -11 55 -20 69
-19 17 0 7 6 -30 20 -116 42 -140 47 -140 29z"/>
<path d="M6440 6051 c-25 -11 -54 -22 -65 -26 -11 -4 -15 -9 -9 -12 6 -2 36 6
65 18 30 12 70 25 89 29 l35 8 -35 1 c-19 0 -55 -8 -80 -18z"/>
<path d="M6420 5962 c-35 -15 -57 -28 -48 -30 9 -2 44 9 79 23 34 15 70 24 81
22 10 -3 18 -1 18 4 0 17 -65 7 -130 -19z"/>
<path d="M6460 5893 c-19 -8 -53 -21 -75 -29 -31 -10 -35 -13 -15 -13 14 0 45
9 70 20 25 11 60 21 78 22 17 0 32 5 32 9 0 13 -53 8 -90 -9z"/>
<path d="M6430 5800 c-41 -16 -65 -29 -54 -29 12 -1 41 8 65 19 24 11 59 20
77 20 20 0 31 4 27 10 -10 15 -34 11 -115 -20z"/>
<path d="M6715 6060 c22 -5 62 -18 88 -30 26 -12 55 -20 64 -18 26 5 -121 58
-158 57 l-34 -1 40 -8z"/>
<path d="M6690 5981 c0 -5 8 -7 18 -4 11 2 47 -7 80 -21 34 -14 69 -26 79 -26
10 0 -15 14 -55 30 -73 30 -122 38 -122 21z"/>
<path d="M6686 5901 c-3 -5 9 -9 28 -9 18 0 55 -9 81 -21 26 -12 57 -21 69
-20 26 0 -121 58 -151 58 -12 1 -24 -3 -27 -8z"/>
<path d="M6685 5820 c-4 -6 8 -10 28 -10 19 0 54 -9 78 -20 24 -11 55 -19 69
-19 17 0 8 6 -30 20 -111 41 -135 46 -145 29z"/>
<path d="M6280 5320 c0 -9 62 -40 81 -40 22 0 6 22 -26 36 -40 17 -55 18 -55
4z"/>
<path d="M5931 5286 c-36 -13 -49 -30 -32 -40 11 -7 81 32 81 45 0 11 -6 11
-49 -5z"/>
<path d="M6295 5260 c-7 -12 41 -32 64 -27 11 2 6 8 -16 20 -37 20 -40 20 -48
7z"/>
<path d="M5660 5224 c0 -10 6 -14 14 -11 7 3 19 0 25 -6 14 -14 25 -3 18 18
-9 21 -57 20 -57 -1z"/>
<path d="M5931 5221 c-7 -5 -11 -13 -7 -19 8 -13 66 4 66 19 0 11 -41 11 -59
0z"/>
<path d="M6430 5215 c0 -15 29 -35 51 -35 7 0 2 11 -11 25 -27 28 -40 32 -40
10z"/>
<path d="M6300 5201 c0 -12 39 -25 48 -16 7 7 -17 25 -35 25 -7 0 -13 -4 -13
-9z"/>
<path d="M5550 5165 c0 -16 16 -20 24 -6 3 5 -1 11 -9 15 -9 3 -15 0 -15 -9z"/>
<path d="M5583 5140 c-44 -20 -55 -44 -31 -68 19 -19 29 -14 22 12 -4 19 0 27
25 42 17 10 31 22 31 26 0 10 2 11 -47 -12z"/>
<path d="M5932 5149 c2 -6 7 -10 11 -10 4 1 16 1 27 1 11 0 20 5 20 10 0 6
-14 10 -31 10 -17 0 -29 -5 -27 -11z"/>
<path d="M6302 5148 c5 -15 28 -23 28 -10 0 5 -7 13 -16 16 -10 4 -14 1 -12
-6z"/>
<path d="M6422 5148 c3 -7 13 -15 22 -16 12 -3 17 1 14 10 -3 7 -13 15 -22 16
-12 3 -17 -1 -14 -10z"/>
<path d="M6400 5106 c0 -2 7 -9 15 -16 12 -10 15 -10 15 4 0 9 -7 16 -15 16
-8 0 -15 -2 -15 -4z"/>
<path d="M5930 5090 c0 -5 11 -10 25 -10 14 0 25 5 25 10 0 6 -11 10 -25 10
-14 0 -25 -4 -25 -10z"/>
<path d="M6512 5078 c2 -6 10 -14 16 -16 7 -2 10 2 6 12 -7 18 -28 22 -22 4z"/>
<path d="M6380 5060 c0 -5 5 -10 10 -10 6 0 10 5 10 10 0 6 -4 10 -10 10 -5 0
-10 -4 -10 -10z"/>
<path d="M6485 5040 c3 -5 8 -10 11 -10 2 0 4 5 4 10 0 6 -5 10 -11 10 -5 0
-7 -4 -4 -10z"/>
<path d="M6190 4601 c0 -13 40 -24 71 -19 42 5 26 23 -23 26 -29 2 -48 -1 -48
-7z"/>
<path d="M6116 4541 c-8 -12 18 -21 62 -21 48 0 73 15 40 23 -34 10 -96 8
-102 -2z"/>
<path d="M6065 4470 c3 -5 28 -10 55 -10 27 0 52 5 55 10 4 6 -17 10 -55 10
-38 0 -59 -4 -55 -10z"/>
<path d="M6020 4410 c0 -5 21 -10 46 -10 27 0 43 4 39 10 -3 6 -24 10 -46 10
-21 0 -39 -4 -39 -10z"/>
<path d="M5022 4593 c0 -16 -5 -58 -11 -95 -16 -97 -8 -107 43 -60 23 21 51
44 62 50 15 9 17 14 8 29 -16 25 -44 30 -38 6 3 -12 -6 -29 -27 -48 -32 -30
-32 -30 -26 -5 4 14 7 35 7 47 0 12 7 29 15 37 14 14 14 18 -1 41 -21 32 -31
32 -32 -2z"/>
<path d="M5144 4475 c6 -18 -44 -126 -55 -119 -4 2 -10 0 -13 -5 -3 -5 14 -25
39 -45 42 -35 45 -36 55 -17 14 28 13 33 -9 26 -27 -8 -45 18 -31 45 12 22 30
19 30 -6 0 -19 16 -18 24 2 9 23 7 36 -4 29 -19 -12 -30 5 -18 30 13 29 26 32
34 8 16 -49 16 -49 27 -24 10 21 7 27 -28 57 -43 36 -61 43 -51 19z"/>
<path d="M5267 4394 c-3 -3 -3 -12 -1 -19 6 -16 -42 -115 -56 -115 -23 0 -7
-21 35 -46 37 -21 48 -24 60 -14 24 20 17 32 -15 25 -22 -5 -32 -3 -36 8 -8
21 42 115 63 119 14 3 12 7 -13 25 -17 12 -34 20 -37 17z"/>
<path d="M5380 4312 c0 -11 -9 -41 -21 -67 -24 -55 -19 -91 16 -107 41 -18 72
-3 100 51 13 27 30 52 37 54 10 4 8 10 -6 21 -24 20 -53 22 -38 4 7 -9 4 -26
-11 -57 -28 -57 -50 -72 -73 -49 -15 15 -15 20 7 72 15 37 28 55 36 52 26 -10
12 14 -17 29 -28 15 -30 14 -30 -3z"/>
<path d="M5535 4229 c-8 -25 3 -39 15 -19 7 11 12 12 20 4 14 -14 -34 -129
-50 -119 -5 3 -10 0 -10 -7 0 -16 57 -40 65 -28 3 5 0 10 -6 12 -7 2 0 25 17
61 26 53 53 72 46 33 -4 -21 24 -21 32 0 9 23 10 22 -34 44 -77 39 -88 41 -95
19z"/>
<path d="M6945 4455 c-51 -50 -20 -155 46 -155 43 0 79 39 79 85 0 37 -14 74
-34 87 -23 16 -67 8 -91 -17z m73 -17 c31 -35 37 -70 14 -98 -22 -27 -43 -23
-68 15 -22 33 -21 75 2 92 24 17 27 17 52 -9z"/>
<path d="M6847 4386 c-16 -12 -16 -16 -4 -23 8 -4 18 -31 21 -63 l7 -55 -36
38 c-21 22 -34 45 -31 53 7 17 -5 18 -39 2 -26 -12 -34 -28 -12 -28 6 0 34
-25 61 -56 26 -30 53 -53 60 -51 14 5 16 197 1 197 -5 -1 -18 -7 -28 -14z"/>
<path d="M6653 4278 l-42 -21 -7 -89 c-4 -51 -11 -88 -17 -88 -8 0 -8 -3 0
-11 12 -12 53 4 53 22 0 6 -4 7 -10 4 -6 -4 -10 6 -10 24 0 20 7 34 21 41 26
14 32 8 32 -30 0 -36 5 -37 66 -5 40 20 48 28 44 45 -3 11 -11 20 -19 20 -7 0
-16 11 -20 25 -8 30 -9 30 -35 4 l-22 -22 -15 28 c-13 26 -13 30 3 42 14 9 22
10 32 1 17 -14 25 -6 17 16 -8 21 -19 20 -71 -6z m-14 -98 c-16 -11 -25 11
-14 38 6 15 9 14 18 -6 8 -18 8 -25 -4 -32z m102 9 c21 -11 18 -23 -11 -39
-15 -8 -21 -6 -31 11 -9 17 -8 23 2 30 18 11 17 11 40 -2z"/>
<path d="M5685 3575 c-15 -41 -31 -75 -36 -75 -5 0 -9 -4 -9 -10 0 -5 14 -10
30 -10 17 0 30 5 30 10 0 6 -4 10 -10 10 -5 0 -7 7 -3 16 3 9 15 14 32 12 20
-2 25 -8 24 -25 -2 -19 2 -23 27 -23 30 0 37 8 21 26 -4 5 -19 39 -31 77 -13
37 -29 67 -36 67 -6 0 -24 -34 -39 -75z m50 -12 c5 -19 2 -23 -14 -23 -23 0
-24 3 -15 38 7 26 18 20 29 -15z"/>
<path d="M6005 3641 c-3 -5 -1 -12 5 -16 14 -9 13 -118 -2 -133 -9 -9 -1 -12
36 -12 26 0 56 5 67 10 24 13 25 56 2 69 -15 8 -16 12 -5 22 20 21 14 49 -14
59 -32 13 -81 13 -89 1z m81 -26 c6 -16 -12 -45 -27 -45 -5 0 -9 14 -9 30 0
32 26 43 36 15z m-1 -69 c23 -16 14 -46 -15 -46 -16 0 -20 7 -20 30 0 33 7 37
35 16z"/>
<path d="M6215 3640 c-34 -13 -47 -37 -47 -82 1 -52 27 -78 78 -78 61 0 98 62
74 121 -18 42 -60 58 -105 39z m65 -29 c24 -45 1 -121 -36 -121 -20 0 -44 41
-44 74 0 55 57 89 80 47z"/>
<path d="M5838 3629 c14 -15 17 -129 2 -129 -5 0 -10 -4 -10 -10 0 -5 13 -10
28 -10 26 0 28 3 24 30 -3 22 0 30 11 30 8 0 20 -13 26 -30 8 -23 16 -30 36
-30 l26 0 -27 35 c-21 28 -24 38 -14 49 6 8 10 27 8 43 -3 27 -6 28 -63 31
-48 2 -58 1 -47 -9z m79 -15 c7 -18 -7 -46 -25 -52 -8 -2 -12 9 -12 32 0 38
25 51 37 20z"/>
<path d="M6368 3634 c15 -7 17 -134 2 -134 -5 0 -10 -4 -10 -10 0 -5 17 -10
38 -9 20 0 31 3 25 6 -18 7 -17 53 1 53 7 0 19 -13 26 -30 9 -22 19 -30 37
-30 l24 0 -27 35 c-21 28 -24 38 -14 49 6 8 10 27 8 43 -3 27 -5 28 -63 30
-33 1 -54 0 -47 -3z m80 -33 c3 -21 -11 -40 -30 -41 -5 0 -8 16 -8 36 0 28 3
35 18 32 9 -2 19 -14 20 -27z"/>
<path d="M7261 2839 c-5 -13 -18 -47 -29 -76 -19 -46 -19 -52 -5 -57 18 -7 16
-9 32 22 19 35 70 52 160 52 73 0 79 -2 85 -22 8 -30 8 -467 0 -506 -7 -33
-41 -52 -95 -52 -22 0 -29 -5 -29 -20 0 -19 7 -19 179 -19 167 0 179 1 184 19
4 15 -2 20 -33 25 -75 13 -74 10 -78 229 -3 108 -1 230 3 271 l7 75 94 0 c101
0 116 -7 150 -66 9 -14 15 -16 24 -8 9 9 8 27 -2 80 -12 60 -17 68 -34 64 -35
-8 -569 -5 -586 4 -14 6 -20 2 -27 -15z"/>
<path d="M2813 2843 c-40 -8 -34 -30 10 -36 71 -10 74 -18 79 -249 3 -112 4
-204 3 -206 -1 -1 -107 108 -235 243 l-234 245 -88 0 c-80 0 -88 -2 -88 -19 0
-13 10 -21 34 -25 18 -4 42 -16 52 -27 18 -20 19 -40 18 -276 0 -255 0 -256
-23 -274 -13 -11 -34 -19 -47 -19 -17 0 -24 -6 -24 -19 0 -18 9 -19 145 -18
130 1 145 2 145 18 0 12 -14 20 -49 29 -82 19 -82 18 -79 250 l3 202 240 -251
c168 -176 246 -251 261 -251 21 0 21 1 26 300 4 273 6 301 23 320 10 11 31 20
47 20 21 0 28 5 28 20 0 19 -7 20 -99 20 -55 0 -105 2 -113 4 -7 2 -23 1 -35
-1z"/>
<path d="M5489 2843 c-136 -3 -147 -5 -152 -23 -4 -16 0 -20 22 -20 16 0 36
-9 47 -21 17 -19 19 -42 22 -280 3 -250 2 -259 -18 -279 -11 -11 -34 -23 -50
-27 -31 -6 -40 -20 -17 -28 6 -2 78 -6 160 -7 127 -3 147 -1 147 13 0 9 -20
24 -48 35 -48 21 -49 22 -55 75 -4 30 -7 87 -7 127 l0 72 39 0 c38 0 42 -3 99
-82 72 -99 171 -197 231 -228 57 -29 161 -40 161 -17 0 9 -15 20 -37 28 -50
16 -111 75 -195 188 -39 53 -75 101 -80 108 -6 8 7 20 42 39 112 61 132 183
44 266 -61 57 -116 66 -355 61z m183 -53 c79 -22 125 -118 91 -188 -24 -50
-71 -72 -150 -72 l-63 0 0 123 c0 82 4 127 12 135 15 15 60 15 110 2z"/>
<path d="M6307 2840 c-132 -34 -199 -144 -153 -254 19 -45 66 -79 176 -126
116 -50 136 -62 156 -101 22 -43 11 -91 -27 -123 -60 -50 -192 -27 -252 43
-15 18 -30 43 -33 57 -4 17 -13 24 -29 24 -23 0 -23 -1 -9 -47 8 -25 14 -70
14 -100 0 -44 3 -53 18 -53 10 0 22 4 28 10 6 6 33 3 73 -7 164 -41 330 52
331 185 0 95 -55 150 -220 221 -124 53 -145 75 -141 148 2 34 42 73 86 83 80
18 164 -23 197 -97 30 -69 43 -56 43 46 l0 90 -40 -1 c-22 -1 -71 1 -110 5
-38 3 -87 2 -108 -3z"/>
<path d="M9633 2836 c-104 -34 -186 -107 -231 -205 -34 -75 -35 -179 -2 -266
28 -71 101 -149 175 -185 43 -22 64 -25 150 -25 89 1 107 4 157 28 72 35 138
99 175 168 25 49 28 64 28 154 0 90 -3 105 -28 153 -35 67 -94 124 -163 158
-66 32 -194 42 -261 20z m166 -65 c91 -47 159 -164 169 -293 7 -95 -11 -151
-67 -209 -56 -58 -107 -75 -178 -59 -117 26 -198 132 -223 288 -34 212 128
360 299 273z"/>
<path d="M10498 2843 c-215 -3 -268 -6 -268 -17 0 -7 18 -18 40 -25 30 -9 42
-18 47 -39 10 -34 9 -477 -1 -515 -4 -20 -18 -33 -41 -43 -19 -8 -35 -21 -35
-29 0 -13 26 -15 165 -15 158 0 165 1 165 20 0 15 -7 20 -25 20 -14 0 -41 6
-60 14 -27 12 -35 22 -41 51 -8 44 -1 202 10 212 11 11 127 6 175 -7 30 -8 42
-17 50 -40 5 -17 17 -30 25 -30 14 0 16 17 16 105 0 83 -3 105 -14 105 -8 0
-19 -13 -24 -29 -12 -34 -57 -51 -137 -51 -99 0 -96 -5 -93 134 l3 121 95 0
c110 -1 148 -14 170 -62 24 -51 46 -43 54 20 8 70 8 107 -1 105 -5 -2 -128 -4
-275 -5z"/>
<path d="M1354 2829 c-9 -15 6 -27 41 -31 50 -5 55 -29 55 -268 0 -187 3 -220
19 -255 38 -85 124 -125 266 -125 110 0 180 22 227 71 55 58 68 113 80 349 11
218 14 230 64 230 18 0 34 17 34 36 0 2 -61 4 -135 4 -128 0 -135 -1 -135 -20
0 -15 7 -20 29 -20 16 0 39 -8 51 -18 30 -24 42 -141 31 -308 -7 -101 -13
-133 -32 -172 -33 -64 -94 -95 -188 -95 -71 0 -111 15 -148 55 -38 41 -43 72
-43 274 0 241 8 263 98 264 15 0 22 6 22 20 0 19 -7 20 -164 20 -108 0 -167
-4 -172 -11z"/>
<path d="M3180 2821 c0 -15 10 -19 46 -24 81 -9 79 -3 79 -297 0 -295 2 -286
-81 -298 -35 -5 -50 -12 -52 -25 -3 -16 11 -17 188 -17 177 0 191 1 188 18 -2
13 -15 18 -51 20 -35 2 -50 8 -58 23 -7 13 -9 109 -7 280 3 260 3 261 27 280
13 10 38 19 57 19 27 0 34 4 34 20 0 19 -7 20 -185 20 -174 0 -185 -1 -185
-19z"/>
<path d="M3640 2833 c1 -18 17 -31 51 -37 20 -3 45 -16 57 -29 24 -26 277
-532 294 -589 18 -59 44 -49 74 29 23 62 197 411 254 510 24 41 38 54 75 69
28 10 45 22 43 31 -2 10 -34 15 -135 19 -130 5 -133 5 -133 -15 0 -16 6 -21
25 -21 14 0 34 -9 45 -20 25 -25 21 -35 -95 -273 l-87 -179 -21 34 c-42 68
-187 392 -187 417 0 6 9 11 19 11 31 0 51 11 51 29 0 14 -20 16 -165 19 -91 2
-165 -1 -165 -5z"/>
<path d="M4582 2823 c2 -9 17 -20 35 -25 44 -11 46 -28 42 -321 -4 -268 -5
-272 -65 -283 -19 -3 -34 -9 -34 -13 1 -23 32 -26 287 -23 268 3 273 3 284 24
14 26 39 116 39 141 0 27 -28 20 -44 -12 -22 -41 -70 -79 -119 -92 -44 -12
-194 -8 -215 5 -8 5 -12 45 -12 131 0 142 -5 136 103 134 104 -1 119 -7 142
-57 31 -66 45 -55 45 37 0 43 3 93 6 110 6 26 4 31 -13 31 -12 0 -25 -12 -34
-32 -13 -30 -19 -34 -74 -41 -33 -4 -85 -6 -115 -5 l-55 3 0 118 c0 94 3 120
15 127 8 5 59 10 113 10 120 0 153 -13 163 -66 6 -31 27 -54 39 -43 2 3 7 39
11 82 l7 77 -277 0 c-255 0 -277 -1 -274 -17z"/>
<path d="M6750 2821 c0 -14 10 -20 41 -24 62 -8 73 -25 81 -125 9 -117 8 -315
-1 -380 -9 -64 -24 -80 -81 -90 -31 -5 -46 -13 -48 -25 -3 -16 12 -17 182 -17
179 0 186 1 186 20 0 17 -7 20 -42 20 -74 0 -73 -4 -76 217 -6 336 4 383 88
383 33 0 40 3 40 20 0 19 -7 20 -185 20 -174 0 -185 -1 -185 -19z"/>
<path d="M8020 2819 c0 -11 11 -19 34 -23 39 -7 91 -59 213 -213 l81 -102 7
-76 c15 -159 -2 -215 -66 -215 -18 0 -28 -6 -32 -19 -4 -18 3 -19 154 -17 139
1 159 3 159 17 0 11 -12 18 -36 22 -62 10 -64 15 -64 164 l0 134 68 102 c38
56 79 121 91 143 22 40 55 64 86 64 8 0 15 8 15 18 0 17 -10 19 -121 20 -109
1 -120 0 -117 -16 2 -9 12 -18 23 -20 52 -8 65 -14 65 -30 0 -20 -128 -222
-141 -222 -9 0 -116 130 -157 193 -29 43 -21 57 31 57 20 0 27 5 27 20 0 18
-7 19 -160 17 -142 -1 -160 -3 -160 -18z"/>
<path d="M111 1548 c-38 -97 -111 -289 -111 -292 0 -2 15 -13 34 -24 l34 -20
23 50 c53 114 127 142 367 141 89 0 165 -3 169 -7 20 -20 30 -760 14 -1050 -8
-133 -9 -140 -34 -162 -27 -23 -82 -38 -184 -50 -61 -6 -63 -7 -57 -33 13 -60
3 -57 141 -48 71 4 245 6 388 5 l260 -3 3 42 c3 43 3 43 -30 43 -54 0 -149 27
-169 46 -38 40 -44 130 -42 678 2 357 6 523 13 530 15 15 343 13 397 -2 59
-17 98 -54 124 -117 12 -30 27 -55 32 -55 5 0 21 7 36 16 l28 16 -29 137 c-15
75 -33 146 -38 159 -12 27 -46 29 -73 5 -27 -25 -344 -36 -817 -28 -335 6
-368 8 -398 26 -44 25 -70 24 -81 -3z"/>
<path d="M9113 1553 c-4 -10 -30 -80 -60 -156 -29 -75 -53 -139 -53 -141 0 -2
16 -13 35 -25 l35 -20 21 49 c49 114 126 144 367 143 89 0 166 -3 169 -7 26
-26 29 -1114 3 -1183 -15 -40 -59 -58 -179 -75 -90 -11 -90 -12 -85 -37 13
-60 1 -57 156 -48 79 5 254 7 391 4 l247 -4 0 42 0 41 -73 11 c-100 14 -129
30 -145 77 -25 77 -34 382 -24 784 6 211 13 386 16 390 12 11 230 14 318 4
113 -13 155 -35 189 -98 14 -27 28 -60 32 -73 4 -18 9 -21 24 -12 57 31 56 23
22 181 -17 80 -36 151 -41 158 -15 17 -48 15 -71 -5 -27 -25 -344 -36 -812
-28 -329 6 -363 8 -398 26 -47 24 -76 24 -84 2z"/>
<path d="M2291 1530 c-295 -79 -525 -321 -582 -608 -15 -78 -7 -253 16 -337
71 -262 279 -468 540 -535 107 -27 282 -28 391 0 266 67 488 271 574 530 34
101 39 280 11 390 -68 269 -253 467 -516 550 -103 33 -330 38 -434 10z m244
-112 c171 -43 329 -211 407 -432 100 -280 67 -538 -88 -706 -185 -200 -497
-172 -696 61 -150 176 -230 481 -183 704 60 284 294 440 560 373z"/>
<path d="M5813 1532 c-276 -71 -507 -295 -579 -562 -24 -88 -24 -270 0 -365
66 -259 250 -458 506 -545 100 -34 307 -40 420 -11 292 74 513 282 592 558 28
100 30 275 4 372 -71 261 -260 458 -521 541 -99 32 -319 38 -422 12z m247
-119 c149 -40 282 -167 365 -347 55 -118 76 -214 82 -366 5 -127 4 -140 -21
-214 -35 -102 -68 -157 -132 -221 -147 -144 -361 -159 -552 -38 -194 122 -324
395 -325 678 0 165 48 298 146 402 109 116 264 154 437 106z"/>
<path d="M11295 1531 c-292 -80 -516 -307 -579 -588 -62 -279 61 -605 289
-769 146 -104 273 -144 455 -144 141 0 238 22 355 79 214 105 370 292 425 507
27 105 27 263 0 368 -64 252 -259 455 -515 536 -101 33 -330 38 -430 11z m269
-123 c138 -45 256 -158 335 -320 65 -131 91 -233 98 -378 4 -89 2 -130 -11
-180 -66 -258 -264 -411 -489 -380 -210 30 -376 177 -467 411 -113 293 -83
574 80 743 120 125 280 161 454 104z"/>
<path d="M3955 1528 c-49 -5 -163 -6 -253 -3 l-163 6 3 -43 3 -43 55 -6 c105
-11 126 -40 142 -193 12 -123 5 -988 -9 -1031 -12 -38 -61 -71 -135 -93 -46
-13 -58 -21 -58 -37 0 -46 5 -46 198 -35 169 11 392 3 470 -17 20 -5 22 -2 22
35 l0 40 -86 27 c-47 15 -94 35 -105 44 -30 25 -39 105 -39 342 l0 219 88 0
87 0 32 -53 c113 -189 369 -478 502 -567 110 -74 254 -119 384 -120 l47 0 0
38 c0 37 -1 37 -52 50 -142 33 -274 167 -556 561 -45 63 -82 118 -82 122 0 5
6 9 14 9 35 0 156 73 203 123 82 86 98 125 98 237 0 83 -4 103 -27 153 -52
110 -159 187 -315 228 -84 21 -295 24 -468 7z m346 -117 c78 -29 132 -80 170
-156 58 -118 39 -248 -49 -327 -63 -56 -145 -78 -300 -78 l-125 0 7 257 c7
271 11 297 56 321 36 19 171 9 241 -17z"/>
<path d="M7035 1496 c0 -45 0 -45 40 -52 113 -18 167 -68 186 -173 14 -80 6
-833 -10 -979 -13 -114 -23 -126 -115 -147 l-76 -16 0 -41 0 -41 78 7 c103 9
394 10 476 1 l66 -7 0 45 0 45 -47 7 c-84 12 -168 43 -195 72 -15 16 -31 48
-37 73 -12 52 -3 852 10 848 4 -2 244 -249 534 -551 l526 -547 47 0 47 0 -3
471 c-3 554 7 836 32 873 25 39 59 57 120 63 l56 6 0 37 0 37 -287 7 c-306 8
-303 8 -303 -41 0 -25 10 -29 103 -37 64 -5 97 -22 124 -62 14 -21 18 -67 25
-262 5 -131 7 -334 6 -452 l-3 -214 -510 532 -510 532 -155 0 c-85 0 -171 3
-190 6 l-35 6 0 -46z"/>
</g>
</svg>
